<?xml version="1.0" encoding="UTF-8"?>
<!DOCTYPE svg PUBLIC "-//W3C//DTD SVG 1.1//EN" "http://www.w3.org/Graphics/SVG/1.1/DTD/svg11.dtd">
<!-- Creator: CorelDRAW 2021 (64-Bit) -->
<svg xmlns="http://www.w3.org/2000/svg" xml:space="preserve" width="36.508mm" height="17.4759mm" version="1.1" style="shape-rendering:geometricPrecision; text-rendering:geometricPrecision; image-rendering:optimizeQuality; fill-rule:evenodd; clip-rule:evenodd"
viewBox="0 0 941.47 450.67"
 xmlns:xlink="http://www.w3.org/1999/xlink"
 xmlns:xodm="http://www.corel.com/coreldraw/odm/2003">
 <defs>
  <style type="text/css">
   <![CDATA[
    .fil2 {fill:#898989;fill-rule:nonzero}
    .fil3 {fill:#545453;fill-rule:nonzero}
    .fil1 {fill:#2B2A29;fill-rule:nonzero}
    .fil0 {fill:#0A5155;fill-rule:nonzero}
    .fil4 {fill:url(#id0)}
   ]]>
  </style>
  <linearGradient id="id0" gradientUnits="userSpaceOnUse" x1="418.41" y1="111.47" x2="468.02" y2="111.47">
   <stop offset="0" style="stop-opacity:1; stop-color:#747678"/>
   <stop offset="0.0784314" style="stop-opacity:1; stop-color:#747678"/>
   <stop offset="1" style="stop-opacity:1; stop-color:#D4D5D7"/>
  </linearGradient>
 </defs>
 <g id="Layer_x0020_1">
  <metadata id="CorelCorpID_0Corel-Layer"/>
  <path class="fil0" d="M189.22 16.08c-21.73,0 -39.41,17.68 -39.41,39.41l0 109.42c0,21.73 17.68,39.41 39.41,39.41 21.73,0 39.41,-17.68 39.41,-39.41l0 -109.42c0,-21.73 -17.68,-39.41 -39.41,-39.41zm0 204.32c-30.59,0 -55.49,-24.89 -55.49,-55.49l0 -109.42c0,-30.6 24.9,-55.49 55.49,-55.49 30.6,0 55.49,24.89 55.49,55.49l0 109.42c0,30.6 -24.89,55.49 -55.49,55.49z"/>
  <path class="fil0" d="M278.97 204.32l33.24 0c21.73,0 39.41,-17.68 39.41,-39.41l0 -109.42c0,-21.73 -17.68,-39.41 -39.41,-39.41l-33.24 0 0 188.24zm33.24 16.08l-49.31 0 0 -220.4 49.31 0c30.59,0 55.49,24.89 55.49,55.49l0 109.42c0,30.59 -24.89,55.49 -55.49,55.49z"/>
  <path class="fil0" d="M16.08 99.87l43.99 0c21.73,0 39.41,-17.68 39.41,-39.41 0,-21.73 -17.68,-39.41 -39.41,-39.41l-43.99 0 0 78.82zm-8.04 123.21c-4.44,0 -8.04,-3.6 -8.04,-8.04l0 -210.07 60.07 0c30.6,0 55.49,24.89 55.49,55.49 0,30.6 -24.89,55.49 -55.49,55.49l-43.99 0 0 99.09c0,4.44 -3.6,8.04 -8.04,8.04z"/>
  <path class="fil1" d="M443.22 223.07c-30.6,0 -55.49,-24.89 -55.49,-55.49l0 -57.39c0,-4.44 3.6,-8.04 8.04,-8.04 4.44,0 8.04,3.6 8.04,8.04l0 57.39c0,21.73 17.68,39.41 39.41,39.41 21.73,0 39.41,-17.68 39.41,-39.41l0 -57.39c0,-4.44 3.6,-8.04 8.04,-8.04 4.44,0 8.04,3.6 8.04,8.04l0 57.39c0,30.59 -24.89,55.49 -55.49,55.49z"/>
  <path class="fil2" d="M490.67 118.24c-4.44,0 -8.04,-3.6 -8.04,-8.04l0 -52.03c0,-21.73 -17.68,-39.41 -39.41,-39.41 -21.73,0 -39.41,17.68 -39.41,39.41l0 52.03c0,4.44 -3.6,8.04 -8.04,8.04 -4.44,0 -8.04,-3.6 -8.04,-8.04l0 -52.03c0,-30.6 24.89,-55.49 55.49,-55.49 30.59,0 55.49,24.89 55.49,55.49l0 52.03c0,4.44 -3.6,8.04 -8.04,8.04z"/>
  <path class="fil0" d="M629.36 220.4c-4.44,0 -8.04,-3.6 -8.04,-8.04l0 -154.19c0,-21.73 -17.68,-39.41 -39.41,-39.41 -21.73,0 -39.41,17.68 -39.41,39.41l0 154.19c0,4.44 -3.6,8.04 -8.04,8.04 -4.44,0 -8.04,-3.6 -8.04,-8.04l0 -154.19c0,-30.6 24.9,-55.49 55.49,-55.49 30.6,0 55.49,24.89 55.49,55.49l0 154.19c0,4.44 -3.6,8.04 -8.04,8.04z"/>
  <path class="fil1" d="M418.42 177.69c0,13.7 11.1,24.8 24.8,24.8 13.7,0 24.8,-11.1 24.8,-24.8l0 -124.13c0,-13.7 -11.1,-24.8 -24.8,-24.8 -13.7,0 -24.8,11.1 -24.8,24.8l0 124.13z"/>
  <path class="fil3" d="M422.4 82.16c0.11,1.89 -0.38,2.81 -2.31,2.63 -0.42,-0.04 -0.85,0.14 -1.28,0.16 -0.14,0.01 -0.28,0.01 -0.4,0.01l0 -5.63c0.38,-0.01 0.77,-0 1.15,-0 2.53,-0.01 2.84,0.3 2.83,2.83z"/>
  <path class="fil3" d="M419.41 143.74l-0.12 0c-0.33,-0 -0.62,-0.01 -0.87,-0.02l0 -5.56c0.97,0.01 1.94,0.15 2.91,0.23 0.07,0.01 0.16,0.03 0.22,0.07 1.42,1.02 0.78,2.49 0.78,3.79 0.01,0.95 -0.66,1.46 -1.63,1.48 -0.43,0.01 -0.86,0 -1.29,0l0 0.01z"/>
  <path class="fil3" d="M419.42 73.23c-0.39,-0.04 -0.72,-0.09 -1.01,-0.13l0 -5.56c0.32,-0.02 0.71,-0.01 1.18,0 0.93,0.03 2.02,-0.11 2.47,0.95 0.53,1.24 0.66,2.66 -0.21,3.71 -0.5,0.6 -1.6,0.71 -2.43,1.03z"/>
  <path class="fil3" d="M419.45 150.11c2.58,0.01 3.84,2.11 2.61,4.46 -0.21,0.41 -0.83,0.77 -1.3,0.84 -0.77,0.11 -1.56,0.08 -2.35,0.06l0 -5.35c0.15,-0.01 0.3,-0 0.45,-0.01 0.2,-0 0.39,0 0.59,0z"/>
  <path class="fil3" d="M422.9 111.46c0,-2.45 0.22,-2.72 2.68,-2.57 0.78,0.05 2.07,0.42 2.2,0.89 0.3,1.14 0.09,2.44 -0.01,3.66 -0.02,0.21 -0.52,0.44 -0.84,0.55 -0.36,0.13 -0.76,0.19 -1.15,0.21 -2.65,0.12 -2.89,-0.11 -2.89,-2.75z"/>
  <path class="fil3" d="M419.31 161.93c2.31,0 2.88,0.45 2.88,2.26 0.01,2.55 -0.5,3.11 -2.83,3.11 -0.37,0 -0.68,-0.02 -0.95,-0.06l0 -5.29c0.25,-0.02 0.55,-0.02 0.89,-0.02z"/>
  <path class="fil3" d="M418.41 56.07c0.96,-0.12 2,0.01 2.98,0.14 0.3,0.04 0.66,0.77 0.74,1.22 0.12,0.72 0.13,1.5 -0.01,2.22 -0.08,0.43 -0.48,1.07 -0.82,1.13 -0.95,0.17 -1.92,0.23 -2.89,0.21l0 -4.93z"/>
  <path class="fil3" d="M428.34 123.63c-0.34,0.63 -0.54,1.63 -1.13,1.97 -1.13,0.65 -2.5,0.68 -3.72,0.02 -0.28,-0.15 -0.47,-0.61 -0.54,-0.96 -0.1,-0.49 -0.06,-1.02 -0.04,-1.52 0.03,-0.87 -0.21,-1.86 0.89,-2.33 0.97,-0.41 3.33,-0.21 3.8,0.5 0.38,0.58 0.45,1.35 0.74,2.32z"/>
  <path class="fil3" d="M428.09 99.81c-0,2.1 -0.57,2.61 -2.91,2.62 -2.03,0 -2.28,-0.32 -2.27,-2.98 0.01,-1.99 0.43,-2.41 2.41,-2.4 2.24,0.02 2.78,0.55 2.78,2.75z"/>
  <path class="fil3" d="M428.43 87.91c-0.44,0.89 -0.66,2.09 -1.19,2.25 -1.12,0.34 -2.46,0.37 -3.61,0.1 -1.02,-0.24 -1.02,-4.12 -0.05,-4.64 1.19,-0.63 2.53,-0.5 3.61,0.12 0.59,0.34 0.79,1.35 1.24,2.17z"/>
  <path class="fil3" d="M428.38 135.38c-0.41,0.69 -0.66,1.67 -1.26,1.99 -1.1,0.59 -2.41,0.7 -3.61,0.04 -0.23,-0.13 -0.44,-0.5 -0.46,-0.77 -0.05,-1.04 -0.05,-2.09 -0.02,-3.14 0.01,-0.2 0.18,-0.47 0.36,-0.58 1.16,-0.74 2.41,-0.57 3.62,-0.19 1.02,0.32 1.04,1.25 1.07,2.14 0.01,0.12 0,0.23 0,0.35 0.1,0.06 0.2,0.11 0.29,0.17z"/>
  <path class="fil3" d="M425.3 73.67c2.18,0 2.77,0.55 2.76,2.54 -0.01,2 -0.63,2.57 -2.79,2.57 -1.82,0.01 -2.35,-0.61 -2.35,-2.7 0,-2.09 0.32,-2.42 2.37,-2.42z"/>
  <path class="fil3" d="M422.93 146.9c0,-1.97 0.51,-2.56 2.19,-2.59 2.25,-0.03 2.95,0.59 2.94,2.65 -0.01,1.97 -0.61,2.44 -3.09,2.44 -1.69,-0 -2.04,-0.43 -2.03,-2.5z"/>
  <path class="fil3" d="M419.46 49.12c-0.24,0 -0.45,-0.01 -0.65,-0.02 0.31,-1.7 0.79,-3.34 1.43,-4.89 1.48,0.15 1.94,0.85 1.92,2.63 -0.01,1.84 -0.55,2.29 -2.7,2.28z"/>
  <path class="fil3" d="M419.44 178.88c-0.39,-0.02 -0.72,-0.05 -1,-0.11 -0.02,-0.36 -0.03,-0.72 -0.03,-1.09l0 -3.7c0.44,-0.07 1.02,-0.08 1.78,-0.05 1.48,0.06 2.06,0.85 1.97,2.71 -0.08,1.73 -0.8,2.32 -2.72,2.24z"/>
  <path class="fil3" d="M425.32 66.83c-1.84,0 -2.31,-0.49 -2.28,-2.41 0.02,-1.79 0.46,-2.44 1.65,-2.43 2.67,0.03 3.37,0.52 3.37,2.38 -0,1.87 -0.66,2.47 -2.73,2.46z"/>
  <path class="fil3" d="M425.34 161.03c-1.92,-0.05 -2.3,-0.47 -2.25,-2.46 0.05,-2.01 0.47,-2.39 2.59,-2.33 1.75,0.05 2.43,0.77 2.36,2.47 -0.07,1.76 -0.79,2.37 -2.71,2.32z"/>
  <path class="fil3" d="M429.03 117.36c0.01,-1.87 0.48,-2.37 2.25,-2.37 1.87,-0 2.49,0.64 2.47,2.58 -0.02,1.7 -0.69,2.32 -2.51,2.31 -1.78,-0.01 -2.22,-0.51 -2.21,-2.52z"/>
  <path class="fil3" d="M429.03 105.65c-0,-1.96 0.47,-2.47 2.27,-2.46 1.84,0.01 2.45,0.63 2.44,2.49 -0.01,1.76 -0.64,2.39 -2.42,2.4 -1.82,0.02 -2.3,-0.49 -2.3,-2.43z"/>
  <path class="fil3" d="M429.03 93.8c0.01,-1.83 0.53,-2.4 2.23,-2.41 1.86,-0.01 2.5,0.66 2.49,2.58 -0.01,1.7 -0.67,2.32 -2.48,2.32 -1.78,0 -2.24,-0.51 -2.23,-2.49z"/>
  <path class="fil3" d="M429.03 129.16c0.01,-1.87 0.48,-2.38 2.22,-2.38 1.85,-0.01 2.5,0.63 2.5,2.42 -0.01,1.85 -0.67,2.48 -2.6,2.47 -1.59,-0 -2.12,-0.64 -2.11,-2.51z"/>
  <path class="fil3" d="M421.96 188.18c-0,0.72 -0.12,1.25 -0.38,1.64 -0.72,-1.28 -1.33,-2.64 -1.82,-4.05 1.62,0.07 2.2,0.72 2.19,2.41z"/>
  <path class="fil3" d="M423.13 52.66c-0.01,-1.79 0.6,-2.48 2.18,-2.53 1.75,-0.05 2.53,0.71 2.53,2.45 0.01,1.77 -0.66,2.4 -2.54,2.42 -1.59,0.02 -2.17,-0.6 -2.18,-2.34z"/>
  <path class="fil3" d="M423.14 170.38c0,-1.67 0.57,-2.3 2.09,-2.31 1.94,-0.02 2.64,0.63 2.63,2.45 -0.01,1.75 -0.7,2.4 -2.57,2.41 -1.53,0.01 -2.15,-0.73 -2.15,-2.54z"/>
  <path class="fil3" d="M433.75 82.06c-0.01,1.68 -0.75,2.41 -2.45,2.42 -1.63,0.01 -2.29,-0.77 -2.26,-2.68 0.02,-1.51 0.76,-2.21 2.29,-2.18 1.73,0.03 2.43,0.74 2.42,2.44z"/>
  <path class="fil3" d="M433.75 141.03c0,1.69 -0.72,2.4 -2.45,2.42 -1.53,0.02 -2.25,-0.69 -2.27,-2.2 -0.02,-1.91 0.66,-2.69 2.28,-2.67 1.7,0.03 2.43,0.76 2.43,2.45z"/>
  <path class="fil3" d="M433.65 70.25c-0,1.79 -0.47,2.24 -2.32,2.24 -1.64,-0.01 -2.27,-0.64 -2.27,-2.25 0.01,-1.5 0.72,-2.22 2.21,-2.23 1.76,-0.01 2.37,0.58 2.37,2.25z"/>
  <path class="fil3" d="M433.65 152.8c0,1.7 -0.59,2.27 -2.35,2.27 -1.51,-0 -2.22,-0.7 -2.24,-2.2 -0.02,-1.66 0.63,-2.28 2.36,-2.28 1.75,0.01 2.23,0.47 2.23,2.21z"/>
  <path class="fil3" d="M425.4 43c-1.53,-0 -2.19,-0.69 -2.16,-2.27 0.02,-1.52 0.73,-2.21 2.27,-2.21 1.6,-0.01 2.34,0.73 2.31,2.3 -0.03,1.53 -0.76,2.19 -2.42,2.19z"/>
  <path class="fil3" d="M425.5 180.07c1.59,0 2.33,0.72 2.32,2.27 -0.02,1.5 -0.78,2.2 -2.41,2.2 -1.49,0 -2.11,-0.67 -2.14,-2.3 -0.03,-1.54 0.63,-2.18 2.23,-2.18z"/>
  <path class="fil3" d="M435.17 111.48c0.01,-1.62 0.55,-2.19 2.06,-2.18 1.58,0.02 2.4,0.81 2.36,2.29 -0.04,1.47 -0.87,2.21 -2.47,2.18 -1.47,-0.03 -1.96,-0.6 -1.95,-2.29z"/>
  <path class="fil3" d="M431.32 56.36c1.53,-0.01 2.36,0.71 2.38,2.07 0.02,1.44 -0.77,2.25 -2.24,2.27 -1.62,0.03 -2.18,-0.52 -2.19,-2.17 -0.01,-1.8 0.33,-2.16 2.05,-2.17z"/>
  <path class="fil3" d="M431.34 166.71c-1.77,-0.05 -2.1,-0.42 -2.06,-2.3 0.04,-1.53 0.61,-2.06 2.2,-2.03 1.45,0.03 2.25,0.84 2.22,2.28 -0.03,1.43 -0.79,2.1 -2.36,2.06z"/>
  <path class="fil3" d="M437.1 125.43c-1.54,0.01 -1.92,-0.38 -1.93,-2.04 -0.01,-1.85 0.41,-2.24 2.41,-2.23 1.28,0.01 2.04,0.83 2.01,2.21 -0.02,1.38 -0.83,2.05 -2.49,2.06z"/>
  <path class="fil3" d="M437.28 97.64c1.48,-0.02 2.33,0.76 2.31,2.12 -0.02,1.34 -0.74,2.12 -1.96,2.15 -1.97,0.04 -2.44,-0.35 -2.46,-2.06 -0.02,-1.85 0.31,-2.19 2.11,-2.22z"/>
  <path class="fil3" d="M435.16 135.13c0,-1.67 0.53,-2.22 2.15,-2.22 1.34,0.01 2.22,0.85 2.24,2.18 0.03,1.35 -0.86,2.21 -2.31,2.24 -1.42,0.03 -2.07,-0.67 -2.08,-2.2z"/>
  <path class="fil3" d="M435.16 87.97c-0.01,-1.55 0.63,-2.25 2.04,-2.24 1.45,0.01 2.35,0.86 2.35,2.21 0,1.32 -0.87,2.19 -2.21,2.21 -1.62,0.02 -2.17,-0.53 -2.18,-2.18z"/>
  <path class="fil3" d="M439.41 146.86c-0,1.51 -0.68,2.23 -2.1,2.24 -1.39,0.02 -2.15,-0.72 -2.13,-2.07 0.03,-1.58 0.73,-2.33 2.16,-2.3 1.36,0.03 2.07,0.77 2.07,2.13z"/>
  <path class="fil3" d="M439.41 76.28c-0.01,1.34 -0.78,2.07 -2.14,2.07 -1.42,-0.01 -2.09,-0.77 -2.09,-2.37 0,-1.28 0.73,-1.99 2.08,-2 1.46,-0.02 2.16,0.74 2.15,2.31z"/>
  <path class="fil3" d="M429.42 46.72c0.05,-1.61 0.61,-2.22 2.03,-2.18 1.47,0.04 2.12,0.79 2.06,2.37 -0.05,1.24 -0.83,1.95 -2.14,1.94 -1.38,-0.01 -2,-0.68 -1.95,-2.13z"/>
  <path class="fil3" d="M433.52 176.29c0.01,1.5 -0.65,2.21 -2.09,2.23 -1.52,0.03 -2.04,-0.63 -2.05,-2.55 -0.01,-1.1 0.76,-1.76 2.02,-1.76 1.36,0 2.11,0.73 2.12,2.08z"/>
  <path class="fil3" d="M427.62 194.01c0,1.07 -0.35,1.74 -1.08,2.03 -1.06,-0.96 -2.03,-2.01 -2.91,-3.14 0.28,-0.63 0.96,-1 1.89,-0.99 1.36,0.01 2.09,0.75 2.1,2.1z"/>
  <path class="fil3" d="M439.26 64.42c-0.01,1.46 -0.51,1.95 -2.01,1.93 -1.3,-0.01 -2.06,-0.79 -2.03,-2.06 0.04,-1.26 0.81,-1.97 2.14,-1.95 1.38,0.02 1.91,0.59 1.9,2.08z"/>
  <path class="fil3" d="M439.26 158.81c-0.01,1.35 -0.58,1.91 -1.94,1.92 -1.31,0.01 -2.09,-0.73 -2.1,-1.99 -0.01,-1.27 0.76,-2.01 2.07,-2.01 1.51,-0.01 1.98,0.49 1.97,2.09z"/>
  <path class="fil3" d="M431.38 36.86c-1.32,0 -2.04,-0.72 -2.02,-2.04 0.02,-1.32 0.63,-1.86 2.12,-1.85 1.33,0 2.01,0.7 1.99,2.03 -0.02,1.16 -0.81,1.86 -2.09,1.86z"/>
  <path class="fil3" d="M443.2 119.43c-1.32,0.01 -2.06,-0.74 -2.04,-2.03 0.02,-1.27 0.71,-1.97 1.95,-1.97 1.34,0 2.11,0.71 2.14,1.96 0.03,1.25 -0.76,2.04 -2.05,2.04z"/>
  <path class="fil3" d="M443.07 107.64c-1.23,-0.01 -1.93,-0.75 -1.92,-2.01 0.01,-1.29 0.77,-2.02 2.09,-1.99 1.24,0.02 1.99,0.76 2.01,1.97 0.02,1.29 -0.79,2.06 -2.18,2.04z"/>
  <path class="fil3" d="M431.48 186.21c1.27,0.03 2.02,0.83 1.97,2.09 -0.05,1.33 -0.78,1.87 -2.41,1.82 -1.06,-0.03 -1.7,-0.85 -1.65,-2.1 0.05,-1.23 0.75,-1.84 2.08,-1.81z"/>
  <path class="fil3" d="M443.12 131.08c-1.41,-0.05 -1.98,-0.59 -1.96,-1.88 0.02,-1.36 0.73,-1.97 2.24,-1.9 1.21,0.05 1.87,0.76 1.86,1.95 -0.02,1.28 -0.71,1.88 -2.14,1.83z"/>
  <path class="fil3" d="M443.25 91.98c1.26,-0.04 1.93,0.53 2,1.74 0.07,1.23 -0.63,2 -1.88,2.04 -1.47,0.06 -2.14,-0.48 -2.21,-1.8 -0.08,-1.35 0.53,-1.93 2.09,-1.99z"/>
  <path class="fil3" d="M437.25 54.51c-1.46,-0.07 -1.9,-0.56 -1.84,-2.07 0.05,-1.32 0.7,-1.92 2.01,-1.85 1.18,0.06 1.95,0.9 1.89,2.07 -0.06,1.26 -0.78,1.91 -2.06,1.85z"/>
  <path class="fil3" d="M437.23 168.52c1.29,-0.03 2.02,0.64 2.08,1.88 0.06,1.21 -0.78,2.08 -2.02,2.08 -1.28,-0.01 -1.85,-0.58 -1.88,-1.89 -0.02,-1.4 0.54,-2.04 1.82,-2.07z"/>
  <path class="fil3" d="M441.3 82.05c0,-1.27 0.71,-1.99 1.94,-1.97 1.19,0.02 1.99,0.83 1.98,2 -0.01,1.23 -0.8,1.94 -2.14,1.93 -1.21,-0.01 -1.77,-0.63 -1.77,-1.97z"/>
  <path class="fil3" d="M441.3 141.02c0,-1.33 0.56,-1.96 1.76,-1.97 1.28,-0.01 2.13,0.75 2.15,1.94 0.02,1.16 -0.8,1.98 -1.98,1.99 -1.22,0.02 -1.93,-0.71 -1.93,-1.97z"/>
  <path class="fil3" d="M445.07 70.19c0.02,1.19 -0.75,2.03 -1.82,2.01 -1.14,-0.02 -1.83,-0.7 -1.86,-1.83 -0.04,-1.27 0.59,-2.01 1.73,-2.06 1.12,-0.05 1.93,0.74 1.95,1.88z"/>
  <path class="fil3" d="M445.07 152.79c0.01,1.17 -0.73,1.96 -1.86,1.97 -1.1,0.01 -1.8,-0.7 -1.82,-1.85 -0.03,-1.29 0.67,-2.04 1.89,-2.04 1.02,0 1.78,0.81 1.79,1.92z"/>
  <path class="fil3" d="M439.17 40.78c0.02,1.12 -0.77,1.92 -1.9,1.91 -1.08,-0.01 -1.8,-0.75 -1.83,-1.86 -0.03,-1.21 0.65,-1.94 1.83,-1.95 1.17,-0.01 1.88,0.7 1.9,1.9z"/>
  <path class="fil3" d="M439.17 182.28c-0.02,1.22 -0.73,1.93 -1.91,1.92 -1.14,-0.02 -1.84,-0.78 -1.81,-2 0.02,-1.09 0.81,-1.85 1.91,-1.81 1.09,0.04 1.83,0.81 1.82,1.9z"/>
  <path class="fil3" d="M431.44 198.07c1.14,0.04 1.88,0.85 1.83,1.99 -0.01,0.12 -0.02,0.23 -0.04,0.34 -1.13,-0.5 -2.21,-1.08 -3.25,-1.73 0.34,-0.39 0.85,-0.62 1.46,-0.6z"/>
  <path class="fil3" d="M443.18 56.69c1.2,-0 1.83,0.57 1.83,1.65 0,1.3 -0.6,1.97 -1.81,1.98 -1.12,0.01 -1.83,-0.69 -1.86,-1.83 -0.03,-1.17 0.61,-1.8 1.83,-1.81z"/>
  <path class="fil3" d="M444.92 164.68c-0.01,1.21 -0.47,1.69 -1.69,1.71 -1.22,0.02 -1.87,-0.59 -1.88,-1.75 -0.01,-1.07 0.75,-1.86 1.82,-1.89 1.2,-0.03 1.75,0.58 1.75,1.93z"/>
  <path class="fil3" d="M449.1 113.3c-1.22,0.01 -1.87,-0.61 -1.86,-1.78 0.01,-1.13 0.61,-1.72 1.78,-1.75 1.25,-0.03 1.85,0.53 1.86,1.72 0.01,1.24 -0.53,1.79 -1.78,1.81z"/>
  <path class="fil3" d="M449.13 121.57c1.21,0.02 1.82,0.64 1.8,1.81 -0.02,1.14 -0.68,1.74 -1.9,1.72 -1.07,-0.02 -1.78,-0.72 -1.79,-1.76 -0.01,-1.08 0.75,-1.79 1.89,-1.77z"/>
  <path class="fil3" d="M449.13 101.5c-1.14,0.02 -1.89,-0.69 -1.88,-1.78 0.01,-1.03 0.72,-1.73 1.79,-1.75 1.22,-0.02 1.88,0.58 1.9,1.72 0.02,1.18 -0.6,1.79 -1.81,1.81z"/>
  <path class="fil3" d="M449.01 89.64c-1.06,-0.04 -1.77,-0.77 -1.72,-1.77 0.05,-1.03 0.84,-1.67 2.03,-1.63 0.9,0.03 1.65,0.88 1.59,1.81 -0.06,0.99 -0.83,1.64 -1.9,1.6z"/>
  <path class="fil3" d="M449.1 136.77c-1.16,-0.04 -1.83,-0.66 -1.82,-1.67 0.02,-1.05 0.77,-1.7 1.94,-1.68 0.93,0.02 1.69,0.78 1.69,1.71 -0,0.99 -0.76,1.68 -1.82,1.64z"/>
  <path class="fil3" d="M437.3 192.43c1.05,0.03 1.8,0.69 1.8,1.6 0.01,1.05 -0.83,1.85 -1.88,1.82 -1.03,-0.03 -1.62,-0.75 -1.58,-1.91 0.03,-1.03 0.59,-1.54 1.66,-1.51z"/>
  <path class="fil3" d="M450.88 146.93c-0,0.99 -0.83,1.76 -1.85,1.74 -1,-0.03 -1.61,-0.72 -1.58,-1.8 0.03,-1.03 0.62,-1.65 1.59,-1.67 1.02,-0.03 1.84,0.75 1.84,1.74z"/>
  <path class="fil3" d="M450.87 76.09c0.04,0.95 -0.69,1.73 -1.66,1.79 -1.03,0.06 -1.7,-0.55 -1.76,-1.62 -0.05,-1.08 0.53,-1.79 1.53,-1.85 1.02,-0.06 1.86,0.69 1.9,1.68z"/>
  <path class="fil3" d="M437.29 30.58c-0.81,0 -1.28,-0.2 -1.49,-0.68 1.08,-0.34 2.18,-0.6 3.31,-0.79 -0.04,0.9 -0.73,1.46 -1.82,1.47z"/>
  <path class="fil3" d="M444.98 46.66c-0.01,0.99 -0.82,1.76 -1.84,1.73 -1,-0.03 -1.61,-0.7 -1.59,-1.78 0.02,-1.06 0.63,-1.66 1.71,-1.67 0.95,-0.01 1.72,0.76 1.72,1.72z"/>
  <path class="fil3" d="M444.98 176.38c0.02,0.95 -0.73,1.74 -1.68,1.75 -1.08,0.01 -1.7,-0.58 -1.74,-1.64 -0.04,-1.08 0.55,-1.77 1.56,-1.81 1.02,-0.04 1.84,0.7 1.87,1.7z"/>
  <path class="fil3" d="M449.16 157.02c0.99,0.03 1.6,0.75 1.55,1.81 -0.05,0.89 -0.74,1.58 -1.58,1.56 -0.92,-0.02 -1.68,-0.83 -1.67,-1.78 0.02,-0.84 0.85,-1.62 1.7,-1.6z"/>
  <path class="fil3" d="M449.11 66.05c-0.86,-0 -1.66,-0.8 -1.65,-1.65 0.01,-0.94 0.81,-1.75 1.71,-1.73 0.81,0.02 1.56,0.86 1.53,1.75 -0.02,1 -0.64,1.63 -1.6,1.63z"/>
  <path class="fil3" d="M444.69 35.05c0.03,1.02 -0.66,1.35 -1.49,1.43 -0.86,0.09 -1.67,-0.75 -1.61,-1.63 0.05,-0.95 0.55,-1.5 1.56,-1.51 1.1,-0.01 1.53,0.47 1.54,1.72z"/>
  <path class="fil3" d="M444.7 188.22c-0.02,1.04 -0.53,1.56 -1.51,1.5 -0.95,-0.05 -1.57,-0.5 -1.6,-1.51 -0.03,-0.92 0.71,-1.61 1.67,-1.59 0.92,0.02 1.46,0.62 1.44,1.6z"/>
  <path class="fil3" d="M455.02 104.12c0.97,0.01 1.6,0.67 1.58,1.64 -0.02,0.88 -0.67,1.43 -1.67,1.4 -0.95,-0.03 -1.53,-0.63 -1.5,-1.57 0.03,-0.94 0.61,-1.49 1.59,-1.48z"/>
  <path class="fil3" d="M454.9 118.94c-0.96,-0.07 -1.53,-0.7 -1.48,-1.61 0.06,-0.98 0.71,-1.51 1.75,-1.42 0.92,0.08 1.43,0.58 1.41,1.52 -0.02,0.98 -0.72,1.58 -1.68,1.5z"/>
  <path class="fil3" d="M456.58 129.38c-0.13,0.78 -0.53,1.38 -1.52,1.36 -0.9,-0.01 -1.7,-0.82 -1.63,-1.66 0.07,-0.87 0.77,-1.42 1.74,-1.37 0.85,0.05 1.44,0.71 1.41,1.66z"/>
  <path class="fil3" d="M455.02 95.35c-0.98,-0.02 -1.63,-0.64 -1.6,-1.52 0.03,-0.78 0.84,-1.51 1.68,-1.5 0.98,0.01 1.42,0.6 1.48,1.49 0.06,0.9 -0.64,1.55 -1.56,1.53z"/>
  <path class="fil3" d="M450.69 170.45c-0.02,0.96 -0.76,1.63 -1.66,1.56 -0.89,-0.07 -1.33,-0.62 -1.34,-1.49 -0.02,-0.93 0.63,-1.55 1.57,-1.51 0.99,0.04 1.33,0.68 1.43,1.45z"/>
  <path class="fil3" d="M449.15 54.07c-0.87,-0.04 -1.42,-0.51 -1.45,-1.45 -0.03,-0.92 0.42,-1.5 1.38,-1.56 0.92,-0.05 1.65,0.63 1.6,1.5 -0.05,0.89 -0.5,1.48 -1.53,1.51z"/>
  <path class="fil3" d="M456.57 141.03c0,0.87 -0.7,1.54 -1.6,1.49 -0.95,-0.05 -1.4,-0.63 -1.37,-1.55 0.02,-0.87 0.48,-1.39 1.37,-1.44 0.91,-0.05 1.6,0.62 1.6,1.49z"/>
  <path class="fil3" d="M455.03 80.54c0.91,0.01 1.6,0.68 1.54,1.56 -0.06,0.94 -0.63,1.43 -1.53,1.43 -0.95,0.01 -1.42,-0.56 -1.44,-1.48 -0.02,-0.9 0.58,-1.51 1.44,-1.5z"/>
  <path class="fil3" d="M453.58 70.19c0.02,-0.87 0.53,-1.33 1.38,-1.4 0.73,-0.06 1.56,0.74 1.57,1.44 0.01,0.7 -0.81,1.56 -1.51,1.49 -0.88,-0.08 -1.43,-0.54 -1.44,-1.53z"/>
  <path class="fil3" d="M453.58 152.56c0,-0.67 0.56,-1.13 1.44,-1.21 0.7,-0.06 1.52,0.78 1.51,1.49 -0.01,0.7 -0.84,1.46 -1.57,1.45 -0.77,-0.02 -1.36,-0.64 -1.37,-1.73z"/>
  <path class="fil3" d="M441.79 199.82c0.14,-0.9 0.73,-1.33 1.55,-1.27 0.84,0.06 1.38,0.65 1.32,1.49 -0.06,0.88 -0.65,1.46 -1.56,1.41 -0.96,-0.05 -1.27,-0.77 -1.31,-1.63z"/>
  <path class="fil3" d="M447.7 40.97c0.02,-1.05 0.68,-1.76 1.47,-1.66 0.85,0.11 1.39,0.61 1.36,1.49 -0.02,0.87 -0.59,1.4 -1.44,1.41 -0.85,0.01 -1.38,-0.49 -1.4,-1.23z"/>
  <path class="fil3" d="M447.7 182.1c0.07,-0.8 0.63,-1.27 1.46,-1.23 0.83,0.05 1.39,0.59 1.37,1.46 -0.02,0.86 -0.55,1.42 -1.42,1.39 -0.92,-0.02 -1.4,-0.59 -1.42,-1.63z"/>
  <path class="fil3" d="M456.54 164.91c-0.48,0.33 -0.92,0.84 -1.45,0.95 -0.81,0.16 -1.33,-0.4 -1.42,-1.22 -0.07,-0.71 0.77,-1.53 1.47,-1.33 0.53,0.16 0.94,0.7 1.4,1.06 -0,0.18 -0.01,0.36 -0.01,0.53z"/>
  <path class="fil3" d="M454.84 56.96c1.11,0.23 1.5,0.73 1.49,1.5 0,0.82 -0.43,1.38 -1.3,1.33 -0.81,-0.04 -1.44,-0.58 -1.31,-1.35 0.09,-0.54 0.73,-0.99 1.12,-1.48z"/>
  <path class="fil3" d="M460.94 101c-0.87,-0.03 -1.23,-0.49 -1.22,-1.28 0.01,-0.8 0.39,-1.26 1.22,-1.24 0.77,0.02 1.27,0.42 1.29,1.21 0.02,0.87 -0.51,1.26 -1.29,1.31z"/>
  <path class="fil3" d="M461.03 112.8c-0.92,-0.01 -1.31,-0.44 -1.32,-1.24 -0.01,-0.79 0.34,-1.28 1.18,-1.28 0.77,0 1.29,0.38 1.33,1.18 0.05,0.86 -0.47,1.26 -1.19,1.34z"/>
  <path class="fil3" d="M460.98 124.6c-0.86,-0 -1.26,-0.44 -1.27,-1.24 -0.01,-0.78 0.34,-1.28 1.18,-1.28 0.77,0 1.29,0.37 1.34,1.17 0.05,0.86 -0.46,1.28 -1.24,1.35z"/>
  <path class="fil3" d="M461.31 86.67c0.22,0.33 0.79,0.8 0.87,1.36 0.12,0.76 -0.51,1.16 -1.28,1.17 -0.83,0.01 -1.19,-0.47 -1.19,-1.26 0,-0.79 0.36,-1.25 1.6,-1.27z"/>
  <path class="fil3" d="M459.5 134.9c0.45,-0.34 0.86,-0.88 1.36,-0.98 0.79,-0.15 1.48,0.37 1.31,1.19 -0.1,0.49 -0.73,1.08 -1.24,1.22 -0.76,0.22 -1.2,-0.36 -1.44,-1.43z"/>
  <path class="fil3" d="M449.53 30.23c-1.09,-0.02 -1.5,-0.38 -1.58,-1.01 0.7,0.13 1.39,0.3 2.07,0.49 -0.18,0.2 -0.39,0.39 -0.49,0.52z"/>
  <path class="fil3" d="M447.73 194.38c0.21,-1.09 0.63,-1.68 1.41,-1.48 0.51,0.14 0.88,0.78 1.32,1.21 -0.43,0.42 -0.83,1.09 -1.31,1.17 -0.42,0.06 -0.93,-0.57 -1.41,-0.9z"/>
  <path class="fil3" d="M455.42 47.92c-1.21,-0.01 -1.58,-0.45 -1.6,-1.25 -0.01,-0.82 0.49,-1.37 1.2,-1.21 0.5,0.11 1.16,0.75 1.21,1.22 0.05,0.43 -0.61,0.94 -0.82,1.24z"/>
  <path class="fil3" d="M455.34 175.13c0.23,0.28 0.92,0.75 0.89,1.18 -0.03,0.47 -0.64,1.16 -1.13,1.29 -0.68,0.2 -1.25,-0.29 -1.27,-1.13 -0.02,-0.77 0.29,-1.27 1.51,-1.35z"/>
  <path class="fil3" d="M459.52 147.16c0.23,-1.12 0.77,-1.6 1.48,-1.43 0.47,0.11 1.06,0.72 1.14,1.19 0.11,0.69 -0.43,1.35 -1.21,1.2 -0.51,-0.1 -0.94,-0.63 -1.41,-0.96z"/>
  <path class="fil3" d="M459.52 75.84c0.48,-0.31 0.99,-0.91 1.44,-0.87 0.44,0.04 1.08,0.67 1.17,1.13 0.14,0.7 -0.37,1.27 -1.18,1.27 -0.77,-0 -1.24,-0.4 -1.43,-1.53z"/>
  <path class="fil3" d="M462.63 158.69c-0.78,0.58 -1.27,1.21 -1.66,1.15 -0.46,-0.06 -0.83,-0.72 -1.24,-1.13 0.42,-0.39 0.78,-1.01 1.26,-1.11 0.35,-0.07 0.84,0.53 1.63,1.09z"/>
  <path class="fil3" d="M462.58 64.29c-0.7,0.58 -1.07,1.12 -1.52,1.2 -0.72,0.12 -1.41,-0.38 -1.26,-1.16 0.09,-0.46 0.73,-1.02 1.21,-1.11 0.35,-0.07 0.84,0.54 1.57,1.07z"/>
  <path class="fil3" d="M456.26 35.11c-0.43,0.3 -0.9,0.87 -1.28,0.82 -0.4,-0.06 -0.9,-0.67 -1.01,-1.13 -0.05,-0.23 0.63,-0.88 1.01,-0.91 0.41,-0.03 0.85,0.46 1.28,0.72 -0,0.17 -0.01,0.33 -0.01,0.5z"/>
  <path class="fil3" d="M456.26 188.41c-0.4,0.28 -0.76,0.7 -1.2,0.79 -0.68,0.14 -1.22,-0.33 -1.11,-1 0.07,-0.41 0.63,-0.99 1,-1.02 0.42,-0.03 0.87,0.48 1.32,0.75 -0,0.16 -0.01,0.32 -0.01,0.47z"/>
  <path class="fil3" d="M462.46 52.61c-0.7,0.46 -1.15,0.96 -1.45,0.89 -0.4,-0.09 -0.87,-0.61 -0.95,-1.01 -0.05,-0.24 0.6,-0.87 0.93,-0.87 0.39,0 0.78,0.5 1.46,1z"/>
  <path class="fil3" d="M462.45 170.63c-0.74,0.42 -1.18,0.86 -1.57,0.82 -0.33,-0.04 -0.6,-0.64 -0.89,-0.99 0.37,-0.31 0.72,-0.83 1.13,-0.88 0.31,-0.04 0.69,0.51 1.34,1.05z"/>
  <path class="fil3" d="M466.44 118.54c-0.22,-0.39 -0.66,-0.83 -0.6,-1.16 0.06,-0.36 0.62,-0.62 0.95,-0.92 0.27,0.33 0.76,0.66 0.76,1 0,0.37 -0.43,0.75 -0.68,1.12 -0.15,-0.01 -0.29,-0.02 -0.44,-0.03z"/>
  <path class="fil3" d="M468.02 105.69c-0.64,0.43 -1.06,0.93 -1.37,0.86 -0.35,-0.07 -0.77,-0.64 -0.8,-1.01 -0.02,-0.27 0.56,-0.84 0.85,-0.83 0.37,0.02 0.71,0.5 1.32,0.97z"/>
  <path class="fil3" d="M454.21 199.93c0.13,-0.35 0.5,-0.76 0.78,-0.8 0.14,-0.02 0.29,0.04 0.46,0.14 -0.4,0.23 -0.81,0.45 -1.24,0.66z"/>
  <path class="fil3" d="M467.97 93.8c-0.55,0.45 -0.88,0.93 -1.24,0.95 -0.26,0.02 -0.81,-0.58 -0.78,-0.86 0.04,-0.37 0.47,-0.85 0.84,-0.96 0.22,-0.07 0.64,0.45 1.19,0.88z"/>
  <path class="fil3" d="M466.86 127.78c0.36,0.77 0.73,1.19 0.68,1.57 -0.04,0.32 -0.56,0.58 -0.86,0.86 -0.27,-0.37 -0.7,-0.71 -0.74,-1.1 -0.03,-0.3 0.43,-0.66 0.92,-1.33z"/>
  <path class="fil3" d="M462.2 40.83c-0.58,0.4 -1.02,0.89 -1.27,0.81 -0.37,-0.12 -0.78,-0.63 -0.83,-1.01 -0.03,-0.23 0.59,-0.76 0.92,-0.76 0.32,-0 0.64,0.5 1.17,0.96z"/>
  <path class="fil3" d="M468 82.08c-0.62,0.43 -0.99,0.89 -1.3,0.85 -0.3,-0.04 -0.72,-0.57 -0.76,-0.92 -0.03,-0.27 0.5,-0.89 0.67,-0.86 0.42,0.09 0.77,0.48 1.4,0.93z"/>
  <path class="fil3" d="M468 140.93c-0.61,0.47 -0.95,0.87 -1.36,0.99 -0.17,0.04 -0.72,-0.55 -0.7,-0.82 0.03,-0.36 0.42,-0.9 0.72,-0.96 0.3,-0.06 0.7,0.39 1.34,0.79z"/>
  <path class="fil3" d="M460.9 180.99c0.44,0.58 0.93,0.95 0.88,1.23 -0.06,0.37 -0.55,0.67 -0.86,1 -0.3,-0.31 -0.79,-0.59 -0.83,-0.93 -0.04,-0.32 0.4,-0.69 0.8,-1.3z"/>
  <path class="fil3" d="M467.77 70.19c-0.48,0.44 -0.85,0.96 -1.01,0.9 -0.35,-0.12 -0.74,-0.52 -0.81,-0.86 -0.04,-0.21 0.44,-0.71 0.74,-0.77 0.25,-0.05 0.59,0.37 1.09,0.73z"/>
  <path class="fil3" d="M466.63 151.53c0.39,0.6 0.73,0.91 0.75,1.23 0.02,0.29 -0.33,0.6 -0.52,0.9 -0.32,-0.28 -0.78,-0.51 -0.91,-0.86 -0.08,-0.23 0.32,-0.64 0.67,-1.27z"/>
  <path class="fil3" d="M460.85 195.12c-0.29,-0.47 -0.62,-0.78 -0.59,-1.03 0.04,-0.27 0.45,-0.48 0.69,-0.72 0.24,0.25 0.67,0.5 0.69,0.76 0.01,0.09 -0.04,0.17 -0.11,0.27 -0.22,0.24 -0.45,0.48 -0.68,0.72z"/>
  <path class="fil3" d="M467.67 58.53c-0.43,0.3 -0.72,0.64 -0.93,0.6 -0.24,-0.05 -0.58,-0.43 -0.59,-0.67 -0.01,-0.24 0.35,-0.49 0.54,-0.73 0.27,0.22 0.53,0.44 0.97,0.8z"/>
  <path class="fil3" d="M466.59 165.65c-0.23,-0.54 -0.48,-0.85 -0.43,-1.1 0.05,-0.26 0.4,-0.45 0.63,-0.66 0.2,0.23 0.59,0.49 0.56,0.69 -0.04,0.3 -0.37,0.56 -0.76,1.07z"/>
  <path class="fil3" d="M467.15 47.06c-0.13,0.12 -0.25,0.21 -0.36,0.2 -0.22,-0.01 -0.61,-0.4 -0.58,-0.54 0.06,-0.27 0.34,-0.57 0.6,-0.67 0.01,-0 0.02,-0.01 0.03,-0 0.11,0.34 0.21,0.67 0.3,1.01z"/>
  <path class="fil3" d="M467.58 176.36c-0.33,0.31 -0.6,0.7 -0.73,0.66 -0.26,-0.08 -0.56,-0.37 -0.64,-0.63 -0.04,-0.14 0.33,-0.55 0.55,-0.58 0.21,-0.03 0.46,0.29 0.82,0.55z"/>
  <polygon class="fil4" points="468.02,104.89 418.41,104.89 418.41,118.04 468.02,118.04 "/>
  <path class="fil1" d="M507.41 110.2c0,9.25 -7.5,16.74 -16.74,16.74 -9.25,0 -16.74,-7.5 -16.74,-16.74 0,-9.25 7.5,-16.74 16.74,-16.74 9.25,0 16.74,7.49 16.74,16.74z"/>
  <path class="fil1" d="M412.51 110.2c0,9.25 -7.49,16.74 -16.74,16.74 -9.25,0 -16.74,-7.5 -16.74,-16.74 0,-9.25 7.5,-16.74 16.74,-16.74 9.25,0 16.74,7.49 16.74,16.74z"/>
  <path class="fil1" d="M492.17 230.03c-2.06,0 -4.12,-0.78 -5.69,-2.35l-15.15 -15.15c-3.14,-3.14 -3.14,-8.23 0,-11.37 3.14,-3.14 8.23,-3.14 11.37,0l15.15 15.15c3.14,3.14 3.14,8.23 0,11.37 -1.57,1.57 -3.63,2.35 -5.68,2.35z"/>
  <path class="fil0" d="M99.81 440.79l0 2.26c0,4.21 -3.41,7.62 -7.62,7.62l-0.41 0c-4.21,0 -7.61,-3.41 -7.61,-7.62l0 -2.26c0,-4.32 3.5,-7.82 7.82,-7.82 4.32,0 7.82,3.5 7.82,7.82zm-27.37 -0.2l0 2.47c0,4.2 -3.41,7.62 -7.62,7.62l-0.4 0c-4.21,0 -7.62,-3.41 -7.62,-7.62l0 -2.26c0,-4.32 3.5,-7.82 7.82,-7.82l0.2 0c4.21,0 7.62,3.41 7.62,7.62zm-38.05 -95.24c-7.05,5.82 -12.25,15.34 -11.19,26.54 1.45,15.24 14.96,26.52 30.27,26.52l63.42 0 0 -77.16c0,-9.46 3.08,-17.49 9.88,-24.07 6.58,-6.79 14.81,-10.08 24.28,-10.08 9.47,0 17.28,3.29 24.07,10.08 6.79,6.59 10.08,14.61 10.08,24.07l0 53.09 25.93 0 0 15.02 -33.33 0c-4.19,0 -7.61,-3.42 -7.61,-7.61l0 -59.92c0,-8.97 -5.94,-17.16 -14.69,-19.19 -12.38,-2.88 -23.59,6.67 -23.59,18.62l0 84.77c0,4.09 -3.32,7.41 -7.41,7.41l-72.43 0c-11.93,0 -22.22,-4.32 -31.07,-12.96 -8.64,-8.64 -12.96,-19.13 -12.96,-31.48 0,-15.33 7.56,-28.09 17.43,-36 3.56,-2.85 8.87,-1.63 10.95,2.42 1.74,3.39 0.91,7.52 -2.03,9.94z"/>
  <path class="fil0" d="M263.79 259.01l0 -2.26c0,-4.26 3.46,-7.72 7.72,-7.72 4.38,0 7.92,3.55 7.92,7.92l0 2.06c0,4.26 -3.45,7.72 -7.72,7.72l-0.21 0c-4.26,0 -7.72,-3.46 -7.72,-7.72zm-27.57 -0.31l0 -1.65c0,-4.43 3.59,-8.02 8.02,-8.02l0.01 0c4.32,0 7.82,3.5 7.82,7.82l0 2.06c0,4.32 -3.5,7.82 -7.82,7.82 -4.43,0 -8.03,-3.59 -8.03,-8.03zm21.71 35.19c4.15,0 7.51,3.36 7.51,7.51l0 64.5c0,2.26 0.62,3.91 1.85,5.14 2.06,2.06 6.17,3.29 12.14,3.29l9.67 0 0 15.02 -7 0c-10.08,0 -17.9,-2.67 -22.84,-7.61 0,-0.21 -0.21,-0.21 -0.21,-0.41l-0.82 1.03c-4.73,4.73 -10.91,6.99 -18.93,6.99l-35.39 0 0 -15.02 35.8 0c5.91,0 10.7,-4.79 10.7,-10.7l0 -62.24c0,-4.15 3.36,-7.51 7.51,-7.51z"/>
  <path class="fil0" d="M402.93 299.23c4.15,0 7.51,3.36 7.51,7.51l0 59.16c0,2.26 0.62,3.91 1.85,5.14 2.06,2.06 5.97,3.29 11.93,3.29l12.96 0c7.82,0 11.32,-3.5 11.32,-11.11l0 -64.71c0,-4.15 3.36,-7.51 7.51,-7.51 4.15,0 7.51,3.36 7.51,7.51l0 64.71c0,14.43 -11.7,26.13 -26.13,26.13l-10.49 0c-10.09,0 -17.7,-2.88 -22.84,-8.02 0,0.21 -0.41,0.62 -0.83,1.03 -4.73,4.73 -11.11,6.99 -18.93,6.99l-10.29 0c-10.08,0 -17.69,-2.67 -22.84,-7.82l-0.21 -0.21c-0.2,0.21 -0.41,0.62 -0.62,1.03 -4.73,4.73 -11.11,6.99 -19.13,6.99l-47.26 0 0 -15.02 47.47 0 0.21 0c7.2,-0.21 10.7,-3.71 10.7,-11.11l0 -64.71c0,-4.15 3.37,-7.51 7.51,-7.51 4.15,0 7.51,3.36 7.51,7.51l0 67.39c0,2.26 0.62,3.91 1.85,5.14 2.06,2.06 5.97,3.29 12.14,3.29l13.17 0c6.02,0 10.91,-4.88 10.91,-10.91l0 -56.69c0,-4.15 3.36,-7.51 7.51,-7.51z"/>
  <path class="fil0" d="M513.92 374.33l10.08 0 0 15.02 -9.67 0c-14.43,0 -26.13,-11.7 -26.13,-26.13l0 -114.81c0,-4.2 3.41,-7.61 7.61,-7.61 4.09,0 7.41,3.32 7.41,7.41l0 115.02c0,7.61 3.29,11.11 10.7,11.11z"/>
  <path class="fil0" d="M610.34 248.62l12.24 0c4.15,0 7.51,3.36 7.51,7.51 0,4.15 -3.36,7.51 -7.51,7.51l-12.24 0c-21.4,0 -33.33,11.32 -35.6,33.54l38.48 0c13.17,0 24.08,4.32 32.72,13.17 8.64,8.85 12.76,19.96 12.76,33.33l0 19.55c0,14.43 -11.7,26.13 -26.13,26.13l-113.71 0 0 -15.02 113.5 0c6.25,0 11.32,-5.06 11.32,-11.32l0 -19.34c0,-18.52 -12.14,-31.48 -30.46,-31.48l-46.29 0c-4.15,0 -7.62,-3.41 -7.61,-7.57 0.06,-33.66 17.95,-56.01 51.03,-56.01z"/>
  <path class="fil0" d="M688.47 305.53c-3.5,-2.87 -3.44,-8.24 0.13,-11.03 6.79,-4.94 16.26,-7.62 28.19,-7.62 10.29,0 19.14,3.91 26.34,11.11 7.2,7.2 10.9,15.84 10.9,26.13l0 32.92c0,21.61 -12.96,32.3 -35.18,32.3l-36.52 0c-4.15,0 -7.51,-3.36 -7.51,-7.51 0,-4.15 3.36,-7.51 7.51,-7.51l36.52 0c13.99,0 20.16,-3.71 20.16,-17.28l0 -32.41c0,-12.07 -9.87,-22.48 -21.94,-22.53 -8.78,-0.03 -15.46,1.41 -19.83,4.52 -4.88,2.02 -8.78,-1.11 -8.78,-1.11z"/>
  <path class="fil0" d="M814.81 374.33l28.19 0 0 -47.35c0,-15.43 -12.75,-28.39 -28.19,-28.39 -15.43,0 -28.4,12.96 -28.4,28.39l0 18.96c0,15.43 12.96,28.4 28.4,28.4zm2.88 42.8c13.58,0 25.31,-11.73 25.31,-25.31l0 -2.47 -27.37 0c-11.71,0 -23.14,-4.32 -31.47,-12.55 -8.57,-8.48 -12.96,-18.83 -12.96,-30.87l0 -17.66c0,-11.92 4.37,-23.6 12.81,-32.01 8.51,-8.48 19.11,-12.79 31.16,-12.7 11.41,0.09 22.24,4.7 30.31,12.77 8.43,8.44 12.75,18.72 12.75,30.65l0 47.35 31.07 0 0 15.02 -31.07 0 0 2.47c0,10.9 -4.12,20.37 -12.14,28.39 -8.03,8.03 -17.49,11.93 -28.4,11.93l-16.53 0c-4.17,0 -7.54,-3.38 -7.54,-7.54 0,-4.18 3.39,-7.56 7.57,-7.54l16.5 0.06z"/>
  <path class="fil0" d="M939.29 301.5l0 61.52c0,14.55 -11.79,26.34 -26.34,26.34l-30.86 0 0 -15.02 30.86 0c7.82,-0.21 11.11,-3.29 11.11,-11.11l0 -61.73c0,-4.21 3.41,-7.62 7.61,-7.62 4.21,0 7.61,3.41 7.61,7.62z"/>
  <path class="fil0" d="M629.36 119.58l-94.9 0c-4.44,0 -8.04,-3.6 -8.04,-8.04 0,-4.44 3.6,-8.04 8.04,-8.04l94.9 0c4.44,0 8.04,3.6 8.04,8.04 0,4.44 -3.6,8.04 -8.04,8.04z"/>
  <path class="fil0" d="M720.61 214.48c-30.59,0 -55.49,-24.89 -55.49,-55.49 0,-4.44 3.6,-8.04 8.04,-8.04 4.44,0 8.04,3.6 8.04,8.04 0,21.73 17.68,39.41 39.41,39.41 21.73,0 39.41,-17.68 39.41,-39.41 0,-15.61 -15.47,-24.47 -40.95,-37.18 -25.29,-12.62 -53.95,-26.93 -53.95,-57.72 0,-30.6 24.89,-55.49 55.49,-55.49 30.6,0 55.49,24.89 55.49,55.49 0,4.44 -3.6,8.04 -8.04,8.04 -4.44,0 -8.04,-3.6 -8.04,-8.04 0,-21.73 -17.68,-39.41 -39.41,-39.41 -21.73,0 -39.41,17.68 -39.41,39.41 0,20.84 21.88,31.77 45.05,43.33 24.51,12.23 49.85,24.88 49.85,51.57 0,30.6 -24.89,55.49 -55.49,55.49z"/>
  <path class="fil0" d="M889.85 21.05l-94.9 0c-4.44,0 -8.04,-3.6 -8.04,-8.04 0,-4.44 3.6,-8.04 8.04,-8.04l94.9 0c4.44,0 8.04,3.6 8.04,8.04 0,4.44 -3.6,8.04 -8.04,8.04z"/>
  <path class="fil0" d="M843.15 222.46c-4.44,0 -8.04,-3.6 -8.04,-8.04l0 -197.78c0,-4.44 3.6,-8.04 8.04,-8.04 4.44,0 8.04,3.6 8.04,8.04l0 197.78c0,4.44 -3.6,8.04 -8.04,8.04z"/>
  <path class="fil0" d="M933.43 222.46c-4.44,0 -8.04,-3.6 -8.04,-8.04l0 -201.41c0,-4.44 3.6,-8.04 8.04,-8.04 4.44,0 8.04,3.6 8.04,8.04l0 201.41c0,4.44 -3.6,8.04 -8.04,8.04z"/>
  <path class="fil0" d="M910.07 417.44l0 -2.26c0,-4.26 3.46,-7.72 7.72,-7.72l0 0c4.37,0 7.92,3.55 7.92,7.92l0 2.06c0,4.26 -3.45,7.72 -7.71,7.72l-0.21 0c-4.26,0 -7.72,-3.46 -7.72,-7.72z"/>
 </g>
</svg>
