<svg width="378" height="113" viewBox="0 0 378 113" fill="none" xmlns="http://www.w3.org/2000/svg">
<g clip-path="url(#clip0_631_62)">
<g clip-path="url(#clip1_631_62)">
<path d="M36.1962 31.5327C35.7175 31.6353 35.2905 31.904 34.9908 32.2912C34.6911 32.6784 34.5381 33.1591 34.5587 33.6483V75.1309C34.5101 75.4276 34.5266 75.7315 34.6071 76.0212C34.6876 76.311 34.8301 76.5798 35.0248 76.8091C35.2195 77.0383 35.4617 77.2224 35.7347 77.3487C36.0077 77.4749 36.3048 77.5403 36.6056 77.5403C36.9063 77.5403 37.2035 77.4749 37.4764 77.3487C37.7494 77.2224 37.9916 77.0383 38.1863 76.8091C38.381 76.5798 38.5236 76.311 38.604 76.0212C38.6845 75.7315 38.701 75.4276 38.6524 75.1309V33.6483C38.6593 33.3567 38.6047 33.0669 38.492 32.7979C38.3794 32.5289 38.2112 32.2866 37.9986 32.087C37.786 31.8873 37.5336 31.7348 37.258 31.6393C36.9824 31.5437 36.6898 31.5074 36.3992 31.5327C36.3316 31.5294 36.2638 31.5294 36.1962 31.5327ZM9.99669 33.716C9.51795 33.8186 9.09096 34.0873 8.79128 34.4745C8.4916 34.8617 8.33855 35.3424 8.35922 35.8316V72.9476C8.31059 73.2444 8.32709 73.5482 8.40757 73.838C8.48805 74.1277 8.63059 74.3965 8.8253 74.6258C9.02001 74.855 9.26224 75.0391 9.5352 75.1654C9.80815 75.2916 10.1053 75.3571 10.4061 75.3571C10.7068 75.3571 11.004 75.2916 11.2769 75.1654C11.5499 75.0391 11.7921 74.855 11.9868 74.6258C12.1815 74.3965 12.3241 74.1277 12.4045 73.838C12.485 73.5482 12.5015 73.2444 12.4529 72.9476V35.8316C12.4598 35.54 12.4052 35.2502 12.2925 34.9812C12.1799 34.7122 12.0117 34.4699 11.7991 34.2703C11.5865 34.0706 11.3341 33.9181 11.0585 33.8225C10.7829 33.727 10.4903 33.6907 10.1997 33.716C10.1321 33.7127 10.0643 33.7127 9.99669 33.716ZM29.6463 40.2659C29.1676 40.3685 28.7406 40.6372 28.4409 41.0244C28.1412 41.4116 27.9882 41.8923 28.0088 42.3815V66.3977C27.9592 66.6949 27.9748 66.9993 28.0548 67.2898C28.1347 67.5804 28.277 67.85 28.4717 68.0799C28.6664 68.3099 28.9089 68.4947 29.1822 68.6214C29.4556 68.7481 29.7533 68.8138 30.0546 68.8138C30.3559 68.8138 30.6536 68.7481 30.927 68.6214C31.2003 68.4947 31.4428 68.3099 31.6375 68.0799C31.8322 67.85 31.9745 67.5804 32.0544 67.2898C32.1343 66.9993 32.15 66.6949 32.1003 66.3977V42.3815C32.1072 42.0903 32.0527 41.8009 31.9403 41.5322C31.8279 41.2635 31.6601 41.0215 31.448 40.8219C31.2359 40.6223 30.9841 40.4697 30.709 40.3739C30.4339 40.278 30.1418 40.2413 29.8515 40.2659C29.7825 40.2624 29.7154 40.2624 29.6463 40.2659ZM3.44681 42.4492C2.96808 42.5518 2.54108 42.8205 2.2414 43.2077C1.94172 43.5949 1.78867 44.0756 1.80935 44.5648V64.2144C1.75967 64.5116 1.77534 64.816 1.85527 65.1066C1.9352 65.3971 2.07746 65.6667 2.27217 65.8966C2.46688 66.1266 2.70935 66.3114 2.98271 66.4381C3.25608 66.5648 3.55378 66.6305 3.85509 66.6305C4.1564 66.6305 4.4541 66.5648 4.72746 66.4381C5.00083 66.3114 5.2433 66.1266 5.43801 65.8966C5.63271 65.6667 5.77498 65.3971 5.85491 65.1066C5.93484 64.816 5.95051 64.5116 5.90083 64.2144V44.5648C5.9077 44.2736 5.85316 43.9842 5.74077 43.7155C5.62837 43.4468 5.46064 43.2048 5.2485 43.0052C5.03635 42.8056 4.78455 42.6529 4.50949 42.5571C4.23443 42.4613 3.94227 42.4245 3.65204 42.4492C3.58295 42.4457 3.51591 42.4457 3.44681 42.4492ZM16.5466 44.6324C16.0678 44.7351 15.6408 45.0038 15.3412 45.391C15.0415 45.7782 14.8884 46.2589 14.9091 46.7481V62.0311C14.8594 62.3283 14.8751 62.6327 14.955 62.9233C15.0349 63.2138 15.1772 63.4834 15.3719 63.7133C15.5666 63.9433 15.8091 64.1281 16.0825 64.2548C16.3558 64.3815 16.6535 64.4472 16.9548 64.4472C17.2562 64.4472 17.5538 64.3815 17.8272 64.2548C18.1006 64.1281 18.3431 63.9433 18.5378 63.7133C18.7325 63.4834 18.8747 63.2138 18.9547 62.9233C19.0346 62.6327 19.0503 62.3283 19.0006 62.0311V46.7481C19.0075 46.4569 18.9529 46.1675 18.8405 45.8988C18.7281 45.6301 18.5604 45.3881 18.3482 45.1885C18.1361 44.9889 17.8843 44.8362 17.6092 44.7404C17.3342 44.6446 17.042 44.6078 16.7518 44.6324C16.6827 44.629 16.6157 44.629 16.5466 44.6324ZM42.7461 44.6324C42.2673 44.7351 41.8403 45.0038 41.5407 45.391C41.241 45.7782 41.0879 46.2589 41.1086 46.7481V62.0311C41.06 62.3279 41.0765 62.6317 41.1569 62.9215C41.2374 63.2113 41.38 63.4801 41.5747 63.7093C41.7694 63.9385 42.0116 64.1226 42.2846 64.2489C42.5575 64.3752 42.8547 64.4406 43.1554 64.4406C43.4562 64.4406 43.7533 64.3752 44.0263 64.2489C44.2992 64.1226 44.5415 63.9385 44.7362 63.7093C44.9309 63.4801 45.0734 63.2113 45.1539 62.9215C45.2344 62.6317 45.2509 62.3279 45.2023 62.0311V46.7481C45.2092 46.4565 45.1545 46.1667 45.0419 45.8977C44.9292 45.6286 44.7611 45.3864 44.5485 45.1867C44.3359 44.9871 44.0835 44.8345 43.8079 44.739C43.5323 44.6435 43.2397 44.6072 42.9491 44.6324C42.8815 44.6291 42.8137 44.6291 42.7461 44.6324ZM-3.10306 48.999C-3.5818 49.1017 -4.00879 49.3704 -4.30847 49.7576C-4.60816 50.1447 -4.7612 50.6255 -4.74053 51.1146V57.6645C-4.78916 57.9613 -4.77266 58.2651 -4.69218 58.5549C-4.6117 58.8447 -4.46916 59.1135 -4.27445 59.3427C-4.07974 59.5719 -3.83751 59.7561 -3.56455 59.8823C-3.2916 60.0086 -2.99444 60.074 -2.69369 60.074C-2.39295 60.074 -2.09579 60.0086 -1.82284 59.8823C-1.54988 59.7561 -1.30765 59.5719 -1.11294 59.3427C-0.918226 59.1135 -0.775689 58.8447 -0.695209 58.5549C-0.614729 58.2651 -0.598231 57.9613 -0.646858 57.6645V51.1146C-0.639929 50.8231 -0.694577 50.5333 -0.807233 50.2642C-0.919889 49.9952 -1.08802 49.753 -1.30065 49.5533C-1.51328 49.3537 -1.76563 49.2011 -2.04122 49.1056C-2.31681 49.0101 -2.60944 48.9738 -2.90002 48.999C-2.96838 48.9956 -3.03688 48.9956 -3.10525 48.999H-3.10306ZM23.0964 48.999C22.6177 49.1017 22.1907 49.3704 21.891 49.7576C21.5913 50.1447 21.4383 50.6255 21.459 51.1146V57.6645C21.4093 57.9617 21.425 58.2662 21.5049 58.5567C21.5848 58.8472 21.7271 59.1168 21.9218 59.3468C22.1165 59.5767 22.359 59.7615 22.6323 59.8882C22.9057 60.015 23.2034 60.0806 23.5047 60.0806C23.806 60.0806 24.1037 60.015 24.3771 59.8882C24.6505 59.7615 24.8929 59.5767 25.0876 59.3468C25.2823 59.1168 25.4246 58.8472 25.5045 58.5567C25.5845 58.2662 25.6001 57.9617 25.5505 57.6645V51.1146C25.5573 50.8235 25.5028 50.5341 25.3904 50.2654C25.278 49.9967 25.1103 49.7546 24.8981 49.5551C24.686 49.3555 24.4342 49.2028 24.1591 49.107C23.8841 49.0112 23.5919 48.9744 23.3017 48.999C23.2326 48.9956 23.1655 48.9956 23.0964 48.999ZM49.2959 48.999C48.8172 49.1017 48.3902 49.3704 48.0905 49.7576C47.7909 50.1447 47.6378 50.6255 47.6585 51.1146V57.6645C47.6098 57.9613 47.6263 58.2651 47.7068 58.5549C47.7873 58.8447 47.9298 59.1135 48.1246 59.3427C48.3193 59.5719 48.5615 59.7561 48.8345 59.8823C49.1074 60.0086 49.4046 60.074 49.7053 60.074C50.0061 60.074 50.3032 60.0086 50.5762 59.8823C50.8491 59.7561 51.0914 59.5719 51.2861 59.3427C51.4808 59.1135 51.6233 58.8447 51.7038 58.5549C51.7843 58.2651 51.8008 57.9613 51.7521 57.6645V51.1146C51.7591 50.8231 51.7044 50.5333 51.5918 50.2642C51.4791 49.9952 51.311 49.753 51.0984 49.5533C50.8857 49.3537 50.6334 49.2011 50.3578 49.1056C50.0822 49.0101 49.7896 48.9738 49.499 48.999C49.4313 48.9957 49.3636 48.9957 49.2959 48.999Z" fill="#F4F1F6"/>
</g>
<g clip-path="url(#clip2_631_62)">
<path d="M126.787 14.5692C125.969 14.7446 125.24 15.2036 124.728 15.865C124.216 16.5265 123.954 17.3477 123.99 18.1834V89.0494C123.907 89.5564 123.935 90.0755 124.072 90.5705C124.21 91.0655 124.453 91.5248 124.786 91.9163C125.119 92.3079 125.532 92.6225 125.999 92.8382C126.465 93.0539 126.973 93.1656 127.486 93.1656C128 93.1656 128.508 93.0539 128.974 92.8382C129.44 92.6225 129.854 92.3079 130.187 91.9163C130.52 91.5248 130.763 91.0655 130.901 90.5705C131.038 90.0755 131.066 89.5564 130.983 89.0494V18.1834C130.995 17.6853 130.902 17.1902 130.709 16.7306C130.517 16.271 130.229 15.8572 129.866 15.5161C129.503 15.175 129.072 14.9144 128.601 14.7513C128.13 14.5881 127.63 14.5261 127.134 14.5692C127.018 14.5636 126.903 14.5636 126.787 14.5692ZM82.0296 18.299C81.2118 18.4744 80.4823 18.9334 79.9704 19.5948C79.4584 20.2563 79.1969 21.0775 79.2323 21.9132V85.3196C79.1492 85.8267 79.1774 86.3457 79.3149 86.8407C79.4523 87.3358 79.6958 87.795 80.0285 88.1865C80.3611 88.5781 80.7749 88.8927 81.2412 89.1084C81.7075 89.3241 82.2152 89.4358 82.7289 89.4358C83.2427 89.4358 83.7504 89.3241 84.2167 89.1084C84.683 88.8927 85.0968 88.5781 85.4294 88.1865C85.762 87.795 86.0055 87.3358 86.143 86.8407C86.2805 86.3457 86.3087 85.8267 86.2256 85.3196V21.9132C86.2375 21.415 86.1441 20.92 85.9516 20.4604C85.7592 20.0008 85.472 19.587 85.1087 19.2459C84.7455 18.9048 84.3144 18.6442 83.8436 18.4811C83.3728 18.3179 82.8729 18.2559 82.3765 18.299C82.2609 18.2933 82.1452 18.2933 82.0296 18.299ZM115.598 29.4884C114.78 29.6637 114.05 30.1227 113.538 30.7842C113.027 31.4456 112.765 32.2669 112.8 33.1026V74.1303C112.716 74.638 112.742 75.1581 112.879 75.6544C113.015 76.1507 113.258 76.6113 113.591 77.0041C113.924 77.3969 114.338 77.7126 114.805 77.9291C115.272 78.1456 115.78 78.2577 116.295 78.2577C116.81 78.2577 117.319 78.1456 117.786 77.9291C118.253 77.7126 118.667 77.3969 118.999 77.0041C119.332 76.6113 119.575 76.1507 119.712 75.6544C119.848 75.1581 119.875 74.638 119.79 74.1303V33.1026C119.802 32.6051 119.709 32.1108 119.517 31.6517C119.325 31.1927 119.038 30.7792 118.676 30.4383C118.313 30.0973 117.883 29.8365 117.413 29.6729C116.943 29.5092 116.444 29.4463 115.948 29.4884C115.83 29.4825 115.716 29.4825 115.598 29.4884ZM70.8402 33.2182C70.0224 33.3935 69.2929 33.8525 68.781 34.514C68.269 35.1754 68.0076 35.9967 68.0429 36.8323V70.4005C67.958 70.9082 67.9848 71.4283 68.1213 71.9246C68.2579 72.4209 68.5009 72.8815 68.8335 73.2743C69.1662 73.6671 69.5804 73.9828 70.0474 74.1993C70.5144 74.4158 71.023 74.5279 71.5377 74.5279C72.0524 74.5279 72.561 74.4158 73.028 74.1993C73.495 73.9828 73.9092 73.6671 74.2419 73.2743C74.5745 72.8815 74.8175 72.4209 74.9541 71.9246C75.0906 71.4283 75.1174 70.9082 75.0325 70.4005V36.8323C75.0442 36.3349 74.9511 35.8406 74.7591 35.3815C74.5671 34.9225 74.2805 34.509 73.9181 34.1681C73.5557 33.8271 73.1255 33.5663 72.6556 33.4027C72.1857 33.239 71.6866 33.1761 71.1908 33.2182C71.0728 33.2123 70.9583 33.2123 70.8402 33.2182ZM93.219 36.948C92.4011 37.1233 91.6717 37.5823 91.1597 38.2438C90.6478 38.9052 90.3863 39.7265 90.4216 40.5621V66.6707C90.3368 67.1784 90.3635 67.6985 90.5001 68.1948C90.6366 68.6911 90.8797 69.1517 91.2123 69.5445C91.5449 69.9373 91.9591 70.253 92.4261 70.4695C92.8931 70.686 93.4017 70.7982 93.9164 70.7982C94.4312 70.7982 94.9398 70.686 95.4068 70.4695C95.8738 70.253 96.288 69.9373 96.6206 69.5445C96.9532 69.1517 97.1963 68.6911 97.3328 68.1948C97.4694 67.6985 97.4961 67.1784 97.4113 66.6707V40.5621C97.423 40.0647 97.3298 39.5704 97.1378 39.1113C96.9458 38.6523 96.6593 38.2388 96.2969 37.8979C95.9344 37.5569 95.5043 37.2961 95.0344 37.1324C94.5645 36.9688 94.0654 36.9059 93.5696 36.948C93.4515 36.9421 93.337 36.9421 93.219 36.948ZM137.976 36.948C137.159 37.1233 136.429 37.5823 135.917 38.2438C135.405 38.9052 135.144 39.7265 135.179 40.5621V66.6707C135.096 67.1777 135.124 67.6967 135.262 68.1918C135.399 68.6868 135.643 69.146 135.975 69.5376C136.308 69.9292 136.722 70.2437 137.188 70.4594C137.654 70.6751 138.162 70.7869 138.676 70.7869C139.19 70.7869 139.697 70.6751 140.164 70.4594C140.63 70.2437 141.044 69.9292 141.376 69.5376C141.709 69.146 141.952 68.6868 142.09 68.1918C142.227 67.6967 142.256 67.1777 142.172 66.6707V40.5621C142.184 40.064 142.091 39.569 141.899 39.1094C141.706 38.6498 141.419 38.2359 141.056 37.8949C140.692 37.5538 140.261 37.2932 139.79 37.13C139.32 36.9668 138.82 36.9048 138.323 36.948C138.208 36.9423 138.092 36.9423 137.976 36.948ZM59.6509 44.4076C58.833 44.5829 58.1036 45.0419 57.5916 45.7034C57.0796 46.3648 56.8182 47.186 56.8535 48.0217V59.2111C56.7704 59.7181 56.7986 60.2371 56.9361 60.7322C57.0736 61.2272 57.3171 61.6864 57.6497 62.078C57.9824 62.4696 58.3962 62.7841 58.8625 62.9999C59.3288 63.2156 59.8364 63.3273 60.3502 63.3273C60.864 63.3273 61.3716 63.2156 61.8379 62.9999C62.3042 62.7841 62.718 62.4696 63.0506 62.078C63.3833 61.6864 63.6268 61.2272 63.7643 60.7322C63.9018 60.2371 63.9299 59.7181 63.8469 59.2111V48.0217C63.8587 47.5236 63.7653 47.0286 63.5729 46.569C63.3804 46.1094 63.0932 45.6955 62.73 45.3544C62.3667 45.0134 61.9356 44.7528 61.4648 44.5896C60.994 44.4264 60.4941 44.3644 59.9977 44.4076C59.8809 44.4018 59.7639 44.4018 59.6471 44.4076H59.6509ZM104.408 44.4076C103.591 44.5829 102.861 45.0419 102.349 45.7034C101.837 46.3648 101.576 47.186 101.611 48.0217V59.2111C101.526 59.7188 101.553 60.2389 101.689 60.7352C101.826 61.2315 102.069 61.6921 102.402 62.0849C102.734 62.4778 103.149 62.7934 103.616 63.0099C104.083 63.2264 104.591 63.3386 105.106 63.3386C105.621 63.3386 106.129 63.2264 106.596 63.0099C107.063 62.7934 107.477 62.4778 107.81 62.0849C108.143 61.6921 108.386 61.2315 108.522 60.7352C108.659 60.2389 108.686 59.7188 108.601 59.2111V48.0217C108.612 47.5243 108.519 47.0299 108.327 46.5709C108.135 46.1118 107.849 45.6984 107.486 45.3574C107.124 45.0165 106.694 44.7557 106.224 44.592C105.754 44.4284 105.255 44.3655 104.759 44.4076C104.641 44.4016 104.526 44.4016 104.408 44.4076ZM149.166 44.4076C148.348 44.5829 147.619 45.0419 147.107 45.7034C146.595 46.3648 146.333 47.186 146.369 48.0217V59.2111C146.285 59.7181 146.314 60.2371 146.451 60.7322C146.589 61.2272 146.832 61.6864 147.165 62.078C147.497 62.4696 147.911 62.7841 148.377 62.9999C148.844 63.2156 149.351 63.3273 149.865 63.3273C150.379 63.3273 150.887 63.2156 151.353 62.9999C151.819 62.7841 152.233 62.4696 152.566 62.078C152.898 61.6864 153.142 61.2272 153.279 60.7322C153.417 60.2371 153.445 59.7181 153.362 59.2111V48.0217C153.374 47.5236 153.28 47.0286 153.088 46.569C152.895 46.1094 152.608 45.6955 152.245 45.3544C151.882 45.0134 151.451 44.7528 150.98 44.5896C150.509 44.4264 150.009 44.3644 149.513 44.4076C149.397 44.4019 149.281 44.4019 149.166 44.4076Z" fill="#F4F1F6"/>
</g>
<g clip-path="url(#clip3_631_62)">
<path d="M289.989 14.5689C289.172 14.7442 288.442 15.2032 287.93 15.8647C287.418 16.5261 287.157 17.3473 287.192 18.183V89.0491C287.109 89.5561 287.137 90.0751 287.275 90.5701C287.412 91.0652 287.656 91.5244 287.988 91.916C288.321 92.3075 288.735 92.6221 289.201 92.8378C289.667 93.0535 290.175 93.1653 290.689 93.1653C291.203 93.1653 291.71 93.0535 292.177 92.8378C292.643 92.6221 293.057 92.3075 293.389 91.916C293.722 91.5244 293.965 91.0652 294.103 90.5701C294.24 90.0751 294.269 89.5561 294.186 89.0491V18.183C294.197 17.6849 294.104 17.1899 293.912 16.7303C293.719 16.2707 293.432 15.8568 293.069 15.5157C292.705 15.1747 292.274 14.9141 291.803 14.7509C291.333 14.5877 290.833 14.5257 290.336 14.5689C290.221 14.5632 290.105 14.5632 289.989 14.5689ZM245.232 18.2986C244.414 18.474 243.685 18.933 243.173 19.5944C242.661 20.2559 242.399 21.0771 242.435 21.9128V85.3193C242.352 85.8263 242.38 86.3453 242.517 86.8403C242.655 87.3354 242.898 87.7946 243.231 88.1862C243.564 88.5778 243.977 88.8923 244.444 89.108C244.91 89.3237 245.418 89.4355 245.931 89.4355C246.445 89.4355 246.953 89.3237 247.419 89.108C247.885 88.8923 248.299 88.5778 248.632 88.1862C248.964 87.7946 249.208 87.3354 249.345 86.8403C249.483 86.3453 249.511 85.8263 249.428 85.3193V21.9128C249.44 21.4147 249.346 20.9197 249.154 20.4601C248.962 20.0005 248.674 19.5866 248.311 19.2455C247.948 18.9045 247.517 18.6438 247.046 18.4807C246.575 18.3175 246.075 18.2555 245.579 18.2986C245.463 18.293 245.348 18.293 245.232 18.2986ZM278.8 29.488C277.982 29.6634 277.253 30.1224 276.741 30.7838C276.229 31.4453 275.967 32.2665 276.003 33.1022V74.1299C275.918 74.6376 275.945 75.1577 276.081 75.654C276.218 76.1503 276.461 76.6109 276.793 77.0037C277.126 77.3966 277.54 77.7122 278.007 77.9287C278.474 78.1452 278.983 78.2574 279.498 78.2574C280.012 78.2574 280.521 78.1452 280.988 77.9287C281.455 77.7122 281.869 77.3966 282.202 77.0037C282.534 76.6109 282.777 76.1503 282.914 75.654C283.05 75.1577 283.077 74.6376 282.992 74.1299V33.1022C283.004 32.6047 282.911 32.1104 282.719 31.6514C282.527 31.1923 282.24 30.7789 281.878 30.4379C281.516 30.097 281.085 29.8362 280.616 29.6725C280.146 29.5088 279.647 29.446 279.151 29.488C279.033 29.4821 278.918 29.4821 278.8 29.488ZM234.043 33.2178C233.225 33.3932 232.495 33.8522 231.983 34.5136C231.471 35.1751 231.21 35.9963 231.245 36.832V70.4001C231.16 70.9078 231.187 71.4279 231.324 71.9242C231.46 72.4205 231.703 72.8811 232.036 73.2739C232.369 73.6668 232.783 73.9824 233.25 74.1989C233.717 74.4154 234.225 74.5276 234.74 74.5276C235.255 74.5276 235.763 74.4154 236.23 74.1989C236.697 73.9824 237.112 73.6668 237.444 73.2739C237.777 72.8811 238.02 72.4205 238.156 71.9242C238.293 71.4279 238.32 70.9078 238.235 70.4001V36.832C238.247 36.3345 238.153 35.8402 237.961 35.3811C237.769 34.9221 237.483 34.5086 237.12 34.1677C236.758 33.8267 236.328 33.5659 235.858 33.4023C235.388 33.2386 234.889 33.1758 234.393 33.2178C234.275 33.2119 234.161 33.2119 234.043 33.2178ZM256.421 36.9476C255.604 37.1229 254.874 37.582 254.362 38.2434C253.85 38.9049 253.589 39.7261 253.624 40.5618V66.6703C253.539 67.178 253.566 67.6981 253.702 68.1944C253.839 68.6907 254.082 69.1513 254.415 69.5441C254.747 69.937 255.162 70.2526 255.629 70.4691C256.096 70.6856 256.604 70.7978 257.119 70.7978C257.634 70.7978 258.142 70.6856 258.609 70.4691C259.076 70.2526 259.49 69.937 259.823 69.5441C260.156 69.1513 260.399 68.6907 260.535 68.1944C260.672 67.6981 260.699 67.178 260.614 66.6703V40.5618C260.625 40.0643 260.532 39.57 260.34 39.1109C260.148 38.6519 259.862 38.2384 259.499 37.8975C259.137 37.5565 258.707 37.2957 258.237 37.1321C257.767 36.9684 257.268 36.9056 256.772 36.9476C256.654 36.9417 256.539 36.9417 256.421 36.9476ZM301.179 36.9476C300.361 37.1229 299.632 37.582 299.12 38.2434C298.608 38.9049 298.346 39.7261 298.382 40.5618V66.6703C298.298 67.1773 298.327 67.6964 298.464 68.1914C298.602 68.6864 298.845 69.1457 299.178 69.5372C299.51 69.9288 299.924 70.2433 300.39 70.4591C300.857 70.6748 301.364 70.7865 301.878 70.7865C302.392 70.7865 302.9 70.6748 303.366 70.4591C303.832 70.2433 304.246 69.9288 304.579 69.5372C304.911 69.1457 305.155 68.6864 305.292 68.1914C305.43 67.6964 305.458 67.1773 305.375 66.6703V40.5618C305.387 40.0636 305.293 39.5686 305.101 39.109C304.908 38.6494 304.621 38.2356 304.258 37.8945C303.895 37.5534 303.464 37.2928 302.993 37.1296C302.522 36.9665 302.022 36.9045 301.526 36.9476C301.41 36.9419 301.294 36.9419 301.179 36.9476ZM222.853 44.4072C222.035 44.5825 221.306 45.0415 220.794 45.703C220.282 46.3644 220.021 47.1857 220.056 48.0214V59.2107C219.973 59.7177 220.001 60.2368 220.138 60.7318C220.276 61.2269 220.519 61.6861 220.852 62.0777C221.185 62.4692 221.599 62.7838 222.065 62.9995C222.531 63.2152 223.039 63.3269 223.553 63.3269C224.066 63.3269 224.574 63.2152 225.04 62.9995C225.507 62.7838 225.92 62.4692 226.253 62.0777C226.586 61.6861 226.829 61.2269 226.967 60.7318C227.104 60.2368 227.132 59.7177 227.049 59.2107V48.0214C227.061 47.5232 226.968 47.0282 226.775 46.5686C226.583 46.109 226.296 45.6951 225.932 45.3541C225.569 45.013 225.138 44.7524 224.667 44.5892C224.196 44.4261 223.697 44.364 223.2 44.4072C223.083 44.4014 222.966 44.4014 222.85 44.4072H222.853ZM267.611 44.4072C266.793 44.5825 266.063 45.0415 265.551 45.703C265.04 46.3644 264.778 47.1857 264.813 48.0214V59.2107C264.729 59.7184 264.755 60.2385 264.892 60.7348C265.028 61.2311 265.271 61.6917 265.604 62.0846C265.937 62.4774 266.351 62.7931 266.818 63.0096C267.285 63.2261 267.793 63.3382 268.308 63.3382C268.823 63.3382 269.332 63.2261 269.799 63.0096C270.266 62.7931 270.68 62.4774 271.012 62.0846C271.345 61.6917 271.588 61.2311 271.725 60.7348C271.861 60.2385 271.888 59.7184 271.803 59.2107V48.0214C271.815 47.5239 271.722 47.0296 271.53 46.5705C271.338 46.1115 271.051 45.698 270.689 45.3571C270.326 45.0161 269.896 44.7553 269.426 44.5917C268.956 44.428 268.457 44.3651 267.961 44.4072C267.843 44.4013 267.729 44.4013 267.611 44.4072ZM312.368 44.4072C311.55 44.5825 310.821 45.0415 310.309 45.703C309.797 46.3644 309.536 47.1857 309.571 48.0214V59.2107C309.488 59.7177 309.516 60.2368 309.653 60.7318C309.791 61.2269 310.034 61.6861 310.367 62.0777C310.7 62.4692 311.114 62.7838 311.58 62.9995C312.046 63.2152 312.554 63.3269 313.068 63.3269C313.581 63.3269 314.089 63.2152 314.555 62.9995C315.022 62.7838 315.435 62.4692 315.768 62.0777C316.101 61.6861 316.344 61.2269 316.482 60.7318C316.619 60.2368 316.647 59.7177 316.564 59.2107V48.0214C316.576 47.5232 316.483 47.0282 316.29 46.5686C316.098 46.109 315.811 45.6951 315.447 45.3541C315.084 45.013 314.653 44.7524 314.182 44.5892C313.711 44.4261 313.212 44.364 312.715 44.4072C312.6 44.4015 312.484 44.4015 312.368 44.4072Z" fill="#F4F1F6"/>
</g>
<g clip-path="url(#clip4_631_62)">
<path d="M199.399 31.5327C198.92 31.6353 198.493 31.904 198.193 32.2912C197.894 32.6784 197.741 33.1591 197.761 33.6483V75.1309C197.713 75.4276 197.729 75.7315 197.81 76.0212C197.89 76.311 198.033 76.5798 198.227 76.8091C198.422 77.0383 198.664 77.2224 198.937 77.3487C199.21 77.4749 199.507 77.5403 199.808 77.5403C200.109 77.5403 200.406 77.4749 200.679 77.3487C200.952 77.2224 201.194 77.0383 201.389 76.8091C201.584 76.5798 201.726 76.311 201.807 76.0212C201.887 75.7315 201.904 75.4276 201.855 75.1309V33.6483C201.862 33.3567 201.807 33.0669 201.695 32.7979C201.582 32.5289 201.414 32.2866 201.201 32.087C200.989 31.8873 200.736 31.7348 200.461 31.6393C200.185 31.5437 199.892 31.5074 199.602 31.5327C199.534 31.5294 199.466 31.5294 199.399 31.5327ZM173.199 33.716C172.721 33.8186 172.294 34.0873 171.994 34.4745C171.694 34.8617 171.541 35.3424 171.562 35.8316V72.9476C171.513 73.2444 171.53 73.5482 171.61 73.838C171.691 74.1277 171.833 74.3965 172.028 74.6258C172.223 74.855 172.465 75.0391 172.738 75.1654C173.011 75.2916 173.308 75.3571 173.609 75.3571C173.909 75.3571 174.207 75.2916 174.48 75.1654C174.753 75.0391 174.995 74.855 175.189 74.6258C175.384 74.3965 175.527 74.1277 175.607 73.838C175.688 73.5482 175.704 73.2444 175.656 72.9476V35.8316C175.662 35.54 175.608 35.2502 175.495 34.9812C175.382 34.7122 175.214 34.4699 175.002 34.2703C174.789 34.0706 174.537 33.9181 174.261 33.8225C173.986 33.727 173.693 33.6907 173.402 33.716C173.335 33.7127 173.267 33.7127 173.199 33.716ZM192.849 40.2659C192.37 40.3685 191.943 40.6372 191.644 41.0244C191.344 41.4116 191.191 41.8923 191.211 42.3815V66.3977C191.162 66.6949 191.177 66.9993 191.257 67.2898C191.337 67.5804 191.48 67.85 191.674 68.0799C191.869 68.3099 192.111 68.4947 192.385 68.6214C192.658 68.7481 192.956 68.8138 193.257 68.8138C193.559 68.8138 193.856 68.7481 194.13 68.6214C194.403 68.4947 194.645 68.3099 194.84 68.0799C195.035 67.85 195.177 67.5804 195.257 67.2898C195.337 66.9993 195.353 66.6949 195.303 66.3977V42.3815C195.31 42.0903 195.255 41.8009 195.143 41.5322C195.031 41.2635 194.863 41.0215 194.651 40.8219C194.438 40.6223 194.187 40.4697 193.912 40.3738C193.637 40.278 193.344 40.2413 193.054 40.2659C192.985 40.2624 192.918 40.2624 192.849 40.2659ZM166.649 42.4492C166.171 42.5518 165.744 42.8205 165.444 43.2077C165.144 43.5949 164.991 44.0756 165.012 44.5648V64.2144C164.962 64.5116 164.978 64.816 165.058 65.1066C165.138 65.3971 165.28 65.6667 165.475 65.8966C165.67 66.1266 165.912 66.3114 166.185 66.4381C166.459 66.5648 166.756 66.6305 167.058 66.6305C167.359 66.6305 167.657 66.5648 167.93 66.4381C168.203 66.3114 168.446 66.1266 168.641 65.8966C168.835 65.6667 168.978 65.3971 169.058 65.1066C169.137 64.816 169.153 64.5116 169.103 64.2144V44.5648C169.11 44.2736 169.056 43.9842 168.943 43.7155C168.831 43.4468 168.663 43.2048 168.451 43.0052C168.239 42.8056 167.987 42.6529 167.712 42.5571C167.437 42.4613 167.145 42.4245 166.855 42.4492C166.786 42.4457 166.719 42.4457 166.649 42.4492ZM179.749 44.6324C179.27 44.7351 178.843 45.0038 178.544 45.391C178.244 45.7782 178.091 46.2589 178.112 46.7481V62.0311C178.062 62.3283 178.078 62.6327 178.158 62.9233C178.238 63.2138 178.38 63.4834 178.575 63.7133C178.769 63.9433 179.012 64.1281 179.285 64.2548C179.558 64.3815 179.856 64.4472 180.157 64.4472C180.459 64.4472 180.756 64.3815 181.03 64.2548C181.303 64.1281 181.546 63.9433 181.74 63.7133C181.935 63.4834 182.077 63.2138 182.157 62.9233C182.237 62.6327 182.253 62.3283 182.203 62.0311V46.7481C182.21 46.4569 182.156 46.1675 182.043 45.8988C181.931 45.6301 181.763 45.3881 181.551 45.1885C181.339 44.9889 181.087 44.8362 180.812 44.7404C180.537 44.6446 180.245 44.6078 179.954 44.6324C179.885 44.629 179.818 44.629 179.749 44.6324ZM205.949 44.6324C205.47 44.7351 205.043 45.0038 204.743 45.391C204.444 45.7782 204.291 46.2589 204.311 46.7481V62.0311C204.263 62.3279 204.279 62.6317 204.36 62.9215C204.44 63.2113 204.583 63.4801 204.777 63.7093C204.972 63.9385 205.214 64.1226 205.487 64.2489C205.76 64.3752 206.057 64.4406 206.358 64.4406C206.659 64.4406 206.956 64.3752 207.229 64.2489C207.502 64.1226 207.744 63.9385 207.939 63.7093C208.134 63.4801 208.276 63.2113 208.357 62.9215C208.437 62.6317 208.454 62.3279 208.405 62.0311V46.7481C208.412 46.4565 208.357 46.1667 208.245 45.8977C208.132 45.6286 207.964 45.3864 207.751 45.1867C207.538 44.9871 207.286 44.8345 207.011 44.739C206.735 44.6435 206.442 44.6072 206.152 44.6324C206.084 44.6291 206.016 44.6291 205.949 44.6324ZM160.1 48.999C159.621 49.1017 159.194 49.3704 158.894 49.7576C158.594 50.1447 158.441 50.6255 158.462 51.1146V57.6645C158.413 57.9613 158.43 58.2651 158.51 58.5549C158.591 58.8447 158.733 59.1135 158.928 59.3427C159.123 59.5719 159.365 59.7561 159.638 59.8823C159.911 60.0086 160.208 60.074 160.509 60.074C160.81 60.074 161.107 60.0086 161.38 59.8823C161.653 59.7561 161.895 59.5719 162.09 59.3427C162.284 59.1135 162.427 58.8447 162.507 58.5549C162.588 58.2651 162.604 57.9613 162.556 57.6645V51.1146C162.563 50.8231 162.508 50.5333 162.395 50.2642C162.283 49.9952 162.115 49.753 161.902 49.5533C161.689 49.3537 161.437 49.2011 161.161 49.1056C160.886 49.0101 160.593 48.9738 160.303 48.999C160.234 48.9956 160.166 48.9956 160.097 48.999H160.1ZM186.299 48.999C185.82 49.1017 185.393 49.3704 185.094 49.7576C184.794 50.1447 184.641 50.6255 184.662 51.1146V57.6645C184.612 57.9617 184.628 58.2662 184.708 58.5567C184.787 58.8472 184.93 59.1168 185.124 59.3468C185.319 59.5767 185.562 59.7615 185.835 59.8882C186.108 60.015 186.406 60.0806 186.707 60.0806C187.009 60.0806 187.306 60.015 187.58 59.8882C187.853 59.7615 188.096 59.5767 188.29 59.3468C188.485 59.1168 188.627 58.8472 188.707 58.5567C188.787 58.2662 188.803 57.9617 188.753 57.6645V51.1146C188.76 50.8235 188.705 50.5341 188.593 50.2654C188.481 49.9967 188.313 49.7546 188.101 49.5551C187.889 49.3555 187.637 49.2028 187.362 49.107C187.087 49.0112 186.795 48.9744 186.504 48.999C186.435 48.9956 186.368 48.9956 186.299 48.999ZM212.499 48.999C212.02 49.1017 211.593 49.3704 211.293 49.7576C210.993 50.1447 210.84 50.6255 210.861 51.1146V57.6645C210.812 57.9613 210.829 58.2651 210.909 58.5549C210.99 58.8447 211.132 59.1135 211.327 59.3427C211.522 59.5719 211.764 59.7561 212.037 59.8823C212.31 60.0086 212.607 60.074 212.908 60.074C213.209 60.074 213.506 60.0086 213.779 59.8823C214.052 59.7561 214.294 59.5719 214.489 59.3427C214.683 59.1135 214.826 58.8447 214.906 58.5549C214.987 58.2651 215.003 57.9613 214.955 57.6645V51.1146C214.962 50.8231 214.907 50.5333 214.794 50.2642C214.682 49.9952 214.514 49.753 214.301 49.5533C214.088 49.3537 213.836 49.2011 213.56 49.1056C213.285 49.0101 212.992 48.9738 212.702 48.999C212.634 48.9957 212.566 48.9957 212.499 48.999Z" fill="#F4F1F6"/>
</g>
<g clip-path="url(#clip5_631_62)">
<path d="M362.601 31.5327C362.123 31.6353 361.696 31.904 361.396 32.2912C361.096 32.6784 360.943 33.1591 360.964 33.6483V75.1309C360.915 75.4276 360.932 75.7315 361.012 76.0212C361.093 76.311 361.235 76.5798 361.43 76.8091C361.625 77.0383 361.867 77.2224 362.14 77.3487C362.413 77.4749 362.71 77.5403 363.011 77.5403C363.312 77.5403 363.609 77.4749 363.882 77.3487C364.155 77.2224 364.397 77.0383 364.592 76.8091C364.786 76.5798 364.929 76.311 365.009 76.0212C365.09 75.7315 365.106 75.4276 365.058 75.1309V33.6483C365.065 33.3567 365.01 33.0669 364.897 32.7979C364.785 32.5289 364.617 32.2866 364.404 32.087C364.191 31.8873 363.939 31.7348 363.663 31.6393C363.388 31.5437 363.095 31.5074 362.805 31.5327C362.737 31.5294 362.669 31.5294 362.601 31.5327ZM336.402 33.716C335.923 33.8186 335.496 34.0873 335.197 34.4745C334.897 34.8617 334.744 35.3424 334.764 35.8316V72.9476C334.716 73.2444 334.732 73.5482 334.813 73.838C334.893 74.1277 335.036 74.3965 335.231 74.6258C335.425 74.855 335.668 75.0391 335.94 75.1654C336.213 75.2916 336.511 75.3571 336.811 75.3571C337.112 75.3571 337.409 75.2916 337.682 75.1654C337.955 75.0391 338.197 74.855 338.392 74.6258C338.587 74.3965 338.729 74.1277 338.81 73.838C338.89 73.5482 338.907 73.2444 338.858 72.9476V35.8316C338.865 35.54 338.81 35.2502 338.698 34.9812C338.585 34.7122 338.417 34.4699 338.204 34.2703C337.992 34.0706 337.739 33.9181 337.464 33.8225C337.188 33.727 336.896 33.6907 336.605 33.716C336.537 33.7127 336.47 33.7127 336.402 33.716ZM356.052 40.2659C355.573 40.3685 355.146 40.6372 354.846 41.0244C354.546 41.4116 354.393 41.8923 354.414 42.3815V66.3977C354.364 66.6949 354.38 66.9993 354.46 67.2898C354.54 67.5804 354.682 67.85 354.877 68.0799C355.072 68.3099 355.314 68.4947 355.587 68.6214C355.861 68.7481 356.159 68.8138 356.46 68.8138C356.761 68.8138 357.059 68.7481 357.332 68.6214C357.606 68.4947 357.848 68.3099 358.043 68.0799C358.237 67.85 358.38 67.5804 358.46 67.2898C358.54 66.9993 358.555 66.6949 358.506 66.3977V42.3815C358.512 42.0903 358.458 41.8009 358.346 41.5322C358.233 41.2635 358.065 41.0215 357.853 40.8219C357.641 40.6223 357.389 40.4697 357.114 40.3738C356.839 40.278 356.547 40.2413 356.257 40.2659C356.188 40.2624 356.121 40.2624 356.052 40.2659ZM329.852 42.4492C329.373 42.5518 328.946 42.8205 328.647 43.2077C328.347 43.5949 328.194 44.0756 328.215 44.5648V64.2144C328.165 64.5116 328.181 64.816 328.261 65.1066C328.34 65.3971 328.483 65.6667 328.677 65.8966C328.872 66.1266 329.115 66.3114 329.388 66.4381C329.661 66.5648 329.959 66.6305 330.26 66.6305C330.562 66.6305 330.859 66.5648 331.133 66.4381C331.406 66.3114 331.649 66.1266 331.843 65.8966C332.038 65.6667 332.18 65.3971 332.26 65.1066C332.34 64.816 332.356 64.5116 332.306 64.2144V44.5648C332.313 44.2736 332.258 43.9842 332.146 43.7155C332.034 43.4468 331.866 43.2048 331.654 43.0052C331.442 42.8056 331.19 42.6529 330.915 42.5571C330.64 42.4613 330.348 42.4245 330.057 42.4492C329.988 42.4457 329.921 42.4457 329.852 42.4492ZM342.952 44.6324C342.473 44.7351 342.046 45.0038 341.746 45.391C341.447 45.7782 341.294 46.2589 341.314 46.7481V62.0311C341.265 62.3283 341.28 62.6327 341.36 62.9233C341.44 63.2138 341.582 63.4834 341.777 63.7133C341.972 63.9433 342.214 64.1281 342.488 64.2548C342.761 64.3815 343.059 64.4472 343.36 64.4472C343.661 64.4472 343.959 64.3815 344.232 64.2548C344.506 64.1281 344.748 63.9433 344.943 63.7133C345.138 63.4834 345.28 63.2138 345.36 62.9233C345.44 62.6327 345.456 62.3283 345.406 62.0311V46.7481C345.413 46.4569 345.358 46.1675 345.246 45.8988C345.133 45.6301 344.966 45.3881 344.754 45.1885C344.541 44.9889 344.29 44.8362 344.015 44.7404C343.739 44.6446 343.447 44.6078 343.157 44.6324C343.088 44.629 343.021 44.629 342.952 44.6324ZM369.151 44.6324C368.673 44.7351 368.246 45.0038 367.946 45.391C367.646 45.7782 367.493 46.2589 367.514 46.7481V62.0311C367.465 62.3279 367.482 62.6317 367.562 62.9215C367.643 63.2113 367.785 63.4801 367.98 63.7093C368.175 63.9385 368.417 64.1226 368.69 64.2489C368.963 64.3752 369.26 64.4406 369.561 64.4406C369.861 64.4406 370.159 64.3752 370.432 64.2489C370.705 64.1226 370.947 63.9385 371.141 63.7093C371.336 63.4801 371.479 63.2113 371.559 62.9215C371.64 62.6317 371.656 62.3279 371.608 62.0311V46.7481C371.614 46.4565 371.56 46.1667 371.447 45.8977C371.335 45.6286 371.166 45.3864 370.954 45.1867C370.741 44.9871 370.489 44.8345 370.213 44.739C369.938 44.6435 369.645 44.6072 369.354 44.6324C369.287 44.6291 369.219 44.6291 369.151 44.6324ZM323.302 48.999C322.823 49.1017 322.396 49.3704 322.097 49.7576C321.797 50.1447 321.644 50.6255 321.665 51.1146V57.6645C321.616 57.9613 321.633 58.2651 321.713 58.5549C321.794 58.8447 321.936 59.1135 322.131 59.3427C322.326 59.5719 322.568 59.7561 322.841 59.8823C323.114 60.0086 323.411 60.074 323.712 60.074C324.012 60.074 324.309 60.0086 324.582 59.8823C324.855 59.7561 325.098 59.5719 325.292 59.3427C325.487 59.1135 325.63 58.8447 325.71 58.5549C325.791 58.2651 325.807 57.9613 325.758 57.6645V51.1146C325.765 50.8231 325.711 50.5333 325.598 50.2642C325.485 49.9952 325.317 49.753 325.105 49.5533C324.892 49.3537 324.64 49.2011 324.364 49.1056C324.088 49.0101 323.796 48.9738 323.505 48.999C323.437 48.9956 323.368 48.9956 323.3 48.999H323.302ZM349.502 48.999C349.023 49.1017 348.596 49.3704 348.296 49.7576C347.997 50.1447 347.844 50.6255 347.864 51.1146V57.6645C347.815 57.9617 347.83 58.2662 347.91 58.5567C347.99 58.8472 348.132 59.1168 348.327 59.3468C348.522 59.5767 348.764 59.7615 349.038 59.8882C349.311 60.015 349.609 60.0806 349.91 60.0806C350.211 60.0806 350.509 60.015 350.782 59.8882C351.056 59.7615 351.298 59.5767 351.493 59.3468C351.688 59.1168 351.83 58.8472 351.91 58.5567C351.99 58.2662 352.005 57.9617 351.956 57.6645V51.1146C351.963 50.8235 351.908 50.5341 351.796 50.2654C351.683 49.9967 351.516 49.7546 351.303 49.5551C351.091 49.3555 350.839 49.2028 350.564 49.107C350.289 49.0112 349.997 48.9744 349.707 48.999C349.638 48.9956 349.571 48.9956 349.502 48.999ZM375.701 48.999C375.222 49.1017 374.795 49.3704 374.496 49.7576C374.196 50.1447 374.043 50.6255 374.064 51.1146V57.6645C374.015 57.9613 374.032 58.2651 374.112 58.5549C374.193 58.8447 374.335 59.1135 374.53 59.3427C374.725 59.5719 374.967 59.7561 375.24 59.8823C375.513 60.0086 375.81 60.074 376.111 60.074C376.411 60.074 376.708 60.0086 376.981 59.8823C377.254 59.7561 377.497 59.5719 377.691 59.3427C377.886 59.1135 378.029 58.8447 378.109 58.5549C378.19 58.2651 378.206 57.9613 378.157 57.6645V51.1146C378.164 50.8231 378.11 50.5333 377.997 50.2642C377.884 49.9952 377.716 49.753 377.504 49.5533C377.291 49.3537 377.039 49.2011 376.763 49.1056C376.487 49.0101 376.195 48.9738 375.904 48.999C375.837 48.9957 375.769 48.9957 375.701 48.999Z" fill="#F4F1F6"/>
</g>
</g>
<defs>
<clipPath id="clip0_631_62">
<rect width="378" height="113" fill="white"/>
</clipPath>
<clipPath id="clip1_631_62">
<rect width="56.7656" height="56.7656" fill="white" transform="translate(-4.87817 27.0984)"/>
</clipPath>
<clipPath id="clip2_631_62">
<rect width="96.9746" height="96.9746" fill="white" transform="translate(56.6184 6.99414)"/>
</clipPath>
<clipPath id="clip3_631_62">
<rect width="96.9746" height="96.9746" fill="white" transform="translate(219.821 6.99377)"/>
</clipPath>
<clipPath id="clip4_631_62">
<rect width="56.7656" height="56.7656" fill="white" transform="translate(158.324 27.0984)"/>
</clipPath>
<clipPath id="clip5_631_62">
<rect width="56.7656" height="56.7656" fill="white" transform="translate(321.527 27.0984)"/>
</clipPath>
</defs>
</svg>
